<?xml version="1.0" standalone="no"?>
<!DOCTYPE svg PUBLIC "-//W3C//DTD SVG 1.1//EN" "http://www.w3.org/Graphics/SVG/1.1/DTD/svg11.dtd" >
<svg>
<metadata>
Created by FontForge 20090622 at Sun Dec 10 12:28:24 2017
 By deploy user
Copyright Copr. 1995 Carter &#38; Cone Type Inc. All rights reserved.
</metadata>
<defs>
<font id="Miller-TextRoman" horiz-adv-x="500" >
  <font-face 
    font-family="Miller Text"
    font-weight="500"
    font-stretch="normal"
    units-per-em="1000"
    panose-1="0 0 0 0 0 0 0 0 0 0"
    ascent="800"
    descent="-200"
    x-height="462"
    cap-height="683"
    bbox="-139 -237 1202 935"
    underline-thickness="20"
    underline-position="-123"
    unicode-range="U+0020-U+FB02"
  />
<missing-glyph 
 />
    <glyph glyph-name=".notdef" 
 />
    <glyph glyph-name=".null" horiz-adv-x="0" 
 />
    <glyph glyph-name="nonmarkingreturn" horiz-adv-x="333" 
 />
    <glyph glyph-name="space" unicode=" " horiz-adv-x="240" 
 />
    <glyph glyph-name="exclam" unicode="!" horiz-adv-x="365" 
d="M247 629q0 -17 -7 -78l-19 -160.5t-19 -177.5h-36q-6 80 -17 177l-18.5 159.5t-7.5 79.5q0 28 17.5 48t44.5 20t44.5 -20t17.5 -48zM252 54q0 -28 -19.5 -47t-47.5 -19t-47.5 19t-19.5 47t19.5 47.5t47.5 19.5t47.5 -19.5t19.5 -47.5z" />
    <glyph glyph-name="quotedbl" unicode="&#x22;" horiz-adv-x="392" 
d="M349 682q0 -11 -6 -38.5l-16.5 -77t-18.5 -94.5h-30q-7 46 -17 94.5l-16 76t-6 39.5q0 24 14.5 39.5t40.5 15.5t40.5 -15.5t14.5 -39.5zM153 682q0 -11 -6 -38.5l-16.5 -77t-18.5 -94.5h-30q-7 46 -17 94.5l-16 76t-6 39.5q0 24 14.5 39.5t40.5 15.5t40.5 -15.5
t14.5 -39.5z" />
    <glyph glyph-name="numbersign" unicode="#" horiz-adv-x="580" 
d="M489 221l-108 -27v-201h-32v193l-117 -29v-164h-32v156l-107 -27v91l107 27v111l-107 -27v91l107 27v185h32v-177l117 29v148h32v-140l108 27v-91l-108 -27v-111l108 27v-91zM349 277v111l-117 -29v-111z" />
    <glyph glyph-name="dollar" unicode="$" horiz-adv-x="615" 
d="M537 188q0 -88 -57.5 -138t-151.5 -56v-136h-34v135q-93 2 -154.5 44t-61.5 109q0 28 15 44.5t40 16.5q21 0 35 -16t14 -39q0 -17 -13 -31t-15 -22q16 -70 140 -71v237q-88 5 -144.5 47.5t-56.5 120.5q0 32 10 61.5t32 57.5t63 46t96 21v94h34v-93q97 -2 145.5 -37
t48.5 -84q0 -29 -14 -44.5t-34 -15.5q-19 0 -32.5 13t-13.5 32q0 15 8.5 30t10.5 25q-13 44 -119 46v-218q100 -8 154.5 -52.5t54.5 -126.5zM294 369v215q-63 -4 -96.5 -32t-33.5 -69q0 -57 31.5 -81.5t98.5 -32.5zM469 145q0 50 -36.5 82t-104.5 37v-235q141 11 141 116z
" />
    <glyph glyph-name="percent" unicode="%" horiz-adv-x="878" 
d="M813 143q0 -64 -49.5 -110.5t-111.5 -46.5q-65 0 -111 42t-46 114q0 67 49 114.5t108 47.5q66 0 113.5 -41.5t47.5 -119.5zM671 672l-429 -773l-37 21l427 773zM383 459q0 -64 -49.5 -110.5t-111.5 -46.5q-65 0 -111 42t-46 114q0 67 49 114.5t108 47.5q66 0 113.5 -42
t47.5 -119zM734 141q0 63 -22 97.5t-59 34.5t-58.5 -35t-21.5 -92q0 -61 21.5 -95t60.5 -34q33 0 56 32.5t23 91.5zM304 457q0 65 -21.5 98.5t-59.5 33.5q-37 0 -58.5 -34t-21.5 -93q0 -61 21.5 -95t60.5 -34q33 0 56 32t23 92z" />
    <glyph glyph-name="ampersand" unicode="&#x26;" horiz-adv-x="745" 
d="M751 399q-84 -9 -108 -21q-14 -7 -23 -17q-11 -13 -51.5 -89.5t-75.5 -118.5q50 -63 95 -90q42 -25 136 -30v-33h-234l-67 83q-97 -99 -195 -99q-78 0 -134.5 42.5t-56.5 125.5q0 65 39.5 116t126.5 106q-40 61 -55 97t-15 72q0 67 51 110.5t121 43.5q67 0 101.5 -39
t34.5 -93q0 -51 -33 -92t-98 -80q57 -84 160 -212q79 112 79 178q0 14 -20 22.5t-65 17.5v32h287v-32zM383 560q0 46 -21 70.5t-55 24.5q-43 0 -60.5 -29t-17.5 -60q0 -58 63 -145q91 55 91 139zM400 110l-58.5 76.5l-70 92t-49.5 69.5q-82 -51 -82 -158q0 -62 35 -101.5
t96 -39.5q79 0 129 61z" />
    <glyph glyph-name="quotesingle" unicode="'" horiz-adv-x="196" 
d="M153 682q0 -11 -6 -38.5l-16.5 -77t-18.5 -94.5h-30q-7 46 -17 94.5l-16 76t-6 39.5q0 24 14.5 39.5t40.5 15.5t40.5 -15.5t14.5 -39.5z" />
    <glyph glyph-name="parenleft" unicode="(" horiz-adv-x="365" 
d="M332 -133l-42 -27q-51 39 -88.5 76t-76 92.5t-59 128t-20.5 158.5q0 83 20 154t57 126t75.5 94t90.5 79l43 -27q-48 -37 -83.5 -73.5t-70 -88t-52.5 -118.5t-18 -146q0 -265 224 -428z" />
    <glyph glyph-name="parenright" unicode=")" horiz-adv-x="365" 
d="M319 295q0 -86 -20.5 -158.5t-59 -128t-76 -92.5t-88.5 -76l-42 27q224 163 224 428q0 79 -18 146t-52.5 118.5t-70 88t-83.5 73.5l43 27q52 -40 90.5 -79t75.5 -94t57 -126t20 -154z" />
    <glyph glyph-name="asterisk" unicode="*" horiz-adv-x="443" 
d="M387 422q-9 -14 -23.5 -17t-25.5 6q-9 6 -44 38.5t-64 53.5q4 -36 16 -83t12 -56q0 -16 -9.5 -26.5t-26.5 -10.5t-26.5 10.5t-9.5 26.5q0 9 11.5 55.5t15.5 83.5q-30 -22 -65 -54.5t-42 -37.5q-31 -20 -49 11q-9 15 -5.5 28.5t18.5 20.5q8 4 54 18t82 30q-37 16 -82.5 30
t-53.5 18q-32 16 -13 48q8 15 22.5 18t26.5 -6q7 -5 42 -38t65 -54q-4 35 -15.5 82t-11.5 57q0 16 9.5 26t26.5 10t26.5 -10t9.5 -26q0 -9 -12 -56t-16 -83q30 21 65.5 54t42.5 38q12 9 26 6t23 -18q9 -14 5 -27.5t-18 -20.5q-8 -4 -53.5 -18t-82.5 -30q37 -16 82.5 -30
t53.5 -18q31 -17 13 -49z" />
    <glyph glyph-name="plus" unicode="+" horiz-adv-x="580" 
d="M531 234h-214v-215h-54v215h-214v52h214v215h54v-215h214v-52z" />
    <glyph glyph-name="comma" unicode="," horiz-adv-x="250" 
d="M197 18q0 -61 -45 -112t-95 -78l-21 33q104 61 111 141h-27q-36 0 -52.5 18t-16.5 45q0 23 17 41t45 18q84 0 84 -106z" />
    <glyph glyph-name="hyphen" unicode="-" horiz-adv-x="374" 
d="M334 212h-294v77h294v-77z" />
    <glyph glyph-name="period" unicode="." horiz-adv-x="250" 
d="M193 57q0 -28 -19.5 -47t-47.5 -19t-47.5 19t-19.5 47t19.5 47.5t47.5 19.5t47.5 -19.5t19.5 -47.5z" />
    <glyph glyph-name="slash" unicode="/" horiz-adv-x="420" 
d="M385 739l-313 -951l-50 13l312 951z" />
    <glyph glyph-name="zero" unicode="0" horiz-adv-x="614" 
d="M564 316q0 -148 -77 -239t-185 -91q-118 0 -185 87t-67 215q0 148 77.5 239t184.5 91q118 0 185 -86.5t67 -215.5zM456 303q0 123 -37.5 201t-109.5 78q-65 0 -108 -77t-43 -204q0 -126 37.5 -202.5t109.5 -76.5q64 0 107.5 77t43.5 204z" />
    <glyph glyph-name="one" unicode="1" horiz-adv-x="424" 
d="M384 0h-310v33q64 4 79 9q14 5 22.5 18t8.5 29v427q-15 -4 -41 -4q-40 0 -116 63l13 23q53 -23 105 -23q65 0 126 42h23q-14 -84 -14 -150v-373q0 -35 29 -48q21 -10 75 -13v-33z" />
    <glyph glyph-name="two" unicode="2" horiz-adv-x="561" 
d="M519 171l-59 -171h-412v37q106 76 151 112.5t90 85.5q84 91 84 208q0 68 -30.5 103t-78.5 35q-46 0 -79 -25t-35 -60q1 -4 14 -22t13 -38q0 -60 -58 -60q-29 0 -43.5 20t-14.5 47q0 23 13 52t38 57t69 47t98 19q87 0 142.5 -49.5t55.5 -129.5q0 -96 -58.5 -164
t-229.5 -169l-27 -25h234q17 0 31 7t26.5 25t17.5 27t16 33q3 5 4 8z" />
    <glyph glyph-name="three" unicode="3" horiz-adv-x="563" 
d="M504 189q0 -101 -77.5 -158t-202.5 -57q-74 0 -133 37.5t-59 101.5q0 38 20.5 59t52.5 21q24 0 37.5 -13t13.5 -36q0 -22 -22 -37.5t-22 -32.5q0 -27 27.5 -45t82.5 -18q69 0 123.5 52.5t54.5 133.5q0 103 -85 103q-37 0 -78 -43l-23 35q96 61 124 89q45 45 45 104
q0 97 -108 97q-41 0 -65.5 -19t-29.5 -35q0 -4 9 -22t9 -38q0 -58 -55 -58q-29 0 -42 19t-13 43q0 53 57.5 99.5t155.5 46.5q51 0 89 -14t58 -36t29 -43t9 -40q0 -107 -155 -143l-18 -15q18 3 38 3q36 0 68.5 -11.5t58.5 -45t26 -84.5z" />
    <glyph glyph-name="four" unicode="4" horiz-adv-x="569" 
d="M528 111h-27q-2 61 -30 83q-3 2 -7 4t-7.5 3t-9.5 2t-10 1.5t-12 0.5h-13h-15.5h-16.5v-113q0 -36 27 -48q21 -8 68 -11v-33h-283v33q58 3 68 7q28 9 28 46v119h-264v48l313 374h43v-376h42.5t25 3t22.5 10q27 22 29 76h29v-229zM288 251v256l-214 -256h214z" />
    <glyph glyph-name="five" unicode="5" horiz-adv-x="522" 
d="M490 612q-21 -41 -60 -68.5t-83 -38t-70.5 -13.5t-50.5 -3q-44 0 -56 2l-37 -147q51 38 129 38q82 0 141.5 -52t59.5 -141q0 -88 -73.5 -145.5t-169.5 -57.5q-84 0 -134.5 34.5t-50.5 84.5q0 35 20 49.5t43 14.5q42 0 42 -44q0 -15 -7 -31t-7 -33q2 -15 28.5 -28
t64.5 -13q40 0 69 22t44 57.5t21.5 70.5t6.5 70q0 58 -35.5 81.5t-80.5 23.5q-37 0 -73.5 -18.5t-48.5 -55.5l-39 8l76 336h32q34 -39 130 -39q50 0 81 12.5t68 40.5z" />
    <glyph glyph-name="six" unicode="6" horiz-adv-x="565" 
d="M529 601q0 -57 -51 -57q-22 0 -32 11t-17 38t-13 38q-12 25 -60 25q-68 0 -122 -83t-72 -224l4 -2q32 41 70.5 59t94.5 18q70 0 124.5 -58.5t54.5 -148.5q0 -30 -7 -60.5t-24.5 -62t-43.5 -55t-68 -38.5t-95 -15q-91 0 -152.5 76.5t-61.5 208.5q0 175 105.5 302
t235.5 127q68 0 99 -32.5t31 -66.5zM403 217q0 159 -124 159q-49 0 -86 -44.5t-37 -134.5q0 -82 36 -129.5t83 -47.5q39 0 66 19.5t39.5 51.5t17.5 62.5t5 63.5z" />
    <glyph glyph-name="seven" unicode="7" horiz-adv-x="506" 
d="M518 574q-67 -97 -99.5 -153.5t-66.5 -144.5q-34 -89 -51.5 -155t-22.5 -157q-6 -86 -66 -86q-26 0 -38.5 16t-12.5 54q0 34 33.5 118t77.5 169q59 113 157 270h-255q-31 0 -55.5 -23t-35 -46t-17.5 -49l-30 5l60 257h28l8 -56h386v-19z" />
    <glyph glyph-name="eight" unicode="8" horiz-adv-x="558" 
d="M498 178q0 -86 -73 -139.5t-166 -53.5q-87 0 -143 43t-56 107q0 59 38.5 104.5t82.5 61.5v5q-53 26 -76.5 56t-23.5 85q0 74 63.5 125.5t141.5 51.5q87 0 137.5 -39.5t50.5 -106.5q0 -37 -27 -76.5t-75 -60.5v-5q25 -10 43 -20.5t39 -29t32.5 -46t11.5 -62.5zM409 486
q0 48 -32.5 75t-89.5 27q-55 0 -89 -28.5t-34 -72.5q0 -57 43 -89t129 -46q73 29 73 134zM411 142q0 109 -194 148q-37 -19 -60.5 -61.5t-23.5 -89.5q0 -52 34 -84.5t101 -32.5q59 0 101 31.5t42 88.5z" />
    <glyph glyph-name="nine" unicode="9" horiz-adv-x="565" 
d="M506 323q0 -111 -40.5 -207.5t-121.5 -158t-186 -61.5q-61 0 -97.5 32t-36.5 67q0 61 54 61q22 0 32 -14t16 -41t9 -35q13 -28 64 -28q83 0 138.5 92t68.5 230l-7 1q-59 -81 -162 -81q-74 0 -127 55.5t-53 151.5q0 90 59.5 160.5t164.5 70.5q43 0 81 -15t71.5 -47t53 -92
t19.5 -141zM411 397q0 88 -39 137.5t-91 49.5q-119 0 -119 -178q0 -88 28.5 -130.5t90.5 -42.5q48 0 89 40t41 124z" />
    <glyph glyph-name="colon" unicode=":" horiz-adv-x="332" 
d="M233 387q0 -28 -19.5 -47t-47.5 -19t-47.5 19t-19.5 47t19.5 47.5t47.5 19.5t47.5 -19.5t19.5 -47.5zM233 58q0 -28 -19.5 -47t-47.5 -19t-47.5 19t-19.5 47t19.5 47.5t47.5 19.5t47.5 -19.5t19.5 -47.5z" />
    <glyph glyph-name="semicolon" unicode=";" horiz-adv-x="332" 
d="M226 390q0 -28 -16 -48t-45 -20t-45.5 19t-16.5 51q0 29 18 46t45 17q28 0 44 -19.5t16 -45.5zM237 18q0 -61 -45 -112t-95 -78l-21 33q104 61 111 141h-27q-36 0 -52.5 18t-16.5 45q0 23 17 41t45 18q84 0 84 -106z" />
    <glyph glyph-name="less" unicode="&#x3c;" horiz-adv-x="560" 
d="M497 32l-442 205v46l442 205v-57l-374 -171l374 -171v-57z" />
    <glyph glyph-name="equal" unicode="=" horiz-adv-x="580" 
d="M511 325h-442v52h442v-52zM511 143h-442v52h442v-52z" />
    <glyph glyph-name="greater" unicode="&#x3e;" horiz-adv-x="560" 
d="M505 237l-442 -205v57l374 171l-374 171v57l442 -205v-46z" />
    <glyph glyph-name="question" unicode="?" horiz-adv-x="482" 
d="M432 483q0 -83 -61.5 -140t-155.5 -69l-3 -96h-38v172q34 5 59 12.5t51 22.5t40 42t14 64q0 155 -120 155q-50 0 -67 -21q0 -1 2.5 -5.5t3.5 -8.5t2.5 -14t1.5 -24q0 -23 -19.5 -36t-37.5 -13q-25 0 -38 16t-13 41q0 40 46 71t121 31q102 0 157 -55.5t55 -144.5zM262 54
q0 -28 -19.5 -46.5t-47.5 -18.5t-47.5 18.5t-19.5 46.5t19.5 47.5t47.5 19.5t47.5 -19.5t19.5 -47.5z" />
    <glyph glyph-name="at" unicode="@" horiz-adv-x="1000" 
d="M955 114q-45 -155 -162.5 -242t-281.5 -87q-83 0 -159 25.5t-136.5 73.5t-97 124.5t-36.5 170.5q0 91 36 177t98.5 152.5t156 107t201.5 40.5q83 0 148.5 -27t105 -73t59.5 -102.5t20 -119.5q0 -128 -76.5 -214.5t-181.5 -86.5q-41 0 -66.5 21t-28.5 59l-3 1
q-51 -79 -112 -79q-48 0 -80 30.5t-32 100.5q0 46 25.5 104.5t80.5 107t122 48.5q27 0 46.5 -15.5t24.5 -44.5h3l20 54h70l-90 -258q-10 -27 -10 -52q0 -48 41 -48q82 0 147.5 78t65.5 200q0 119 -79.5 200t-221.5 81q-74 0 -144.5 -29.5t-127 -83t-91 -138t-34.5 -186.5
q0 -166 94.5 -261t241.5 -95q161 0 267 76t153 218zM615 323q-12 74 -65 74q-38 0 -71 -40t-50.5 -94t-17.5 -104q0 -85 42 -85q57 0 107 87z" />
    <glyph glyph-name="A" unicode="A" horiz-adv-x="697" 
d="M721 0h-315v33q101 6 101 28q0 12 -4 23l-60 153h-245q-23 -56 -38 -105q-11 -35 -11 -56q0 -20 37 -30.5t76 -12.5v-33h-285v33q42 2 70 18q37 22 57 68l230 575h43l233 -595q12 -30 45 -49q27 -15 66 -17v-33zM426 280l-106 267l-105 -267h211z" />
    <glyph glyph-name="B" unicode="B" horiz-adv-x="669" 
d="M622 181q0 -60 -39 -103t-89 -60.5t-102 -17.5h-348v33q50 3 74 12q31 12 31 48v491q0 37 -31 50q-32 14 -70 16v33h342q43 0 84.5 -11t76.5 -43.5t35 -82.5q0 -77 -44 -113.5t-129 -60.5v-9q31 -4 63 -14t67 -30t57 -56t22 -82zM466 525q0 121 -129 121q-34 0 -82 -2
v-264h62q149 0 149 145zM499 203q0 63 -42 101.5t-117 38.5q-49 0 -85 -2v-244q5 -33 27 -46.5t67 -13.5q82 0 116 47.5t34 118.5z" />
    <glyph glyph-name="C" unicode="C" horiz-adv-x="655" 
d="M642 173q-83 -188 -273 -188q-149 0 -240 95t-91 253q0 155 100.5 259t251.5 104q40 0 84 -16t67 -38l30 51h41l4 -255h-34q-32 100 -83.5 159.5t-139.5 59.5q-84 0 -142.5 -80t-58.5 -236q0 -129 70 -212t170 -83q85 0 131.5 36t79.5 107z" />
    <glyph glyph-name="D" unicode="D" horiz-adv-x="781" 
d="M743 337q0 -84 -34 -150.5t-90.5 -106t-125 -60t-143.5 -20.5h-306v33q51 0 74 9q31 12 31 49v493q0 38 -31 51t-70 15v33h322q45 0 91.5 -9.5t98.5 -34t91.5 -62t65.5 -100t26 -140.5zM620 338q0 137 -76.5 222t-201.5 85q-43 0 -87 -2v-527q5 -39 29.5 -58t79.5 -19
q128 0 192 79.5t64 219.5z" />
    <glyph glyph-name="E" unicode="E" horiz-adv-x="668" 
d="M644 202l-13 -202h-592v33q59 3 79 11q31 12 31 49v491q0 37 -31 49q-35 15 -79 17v33h551v-165h-37q-9 36 -43 78t-64 46q-32 4 -83 4h-108v-273h80q26 0 44.5 6t24 10.5t15.5 14.5t19 37.5t12 49.5h37v-279h-37q-1 22 -11.5 52t-19.5 40q-29 31 -84 31h-80v-205
q0 -60 21 -75.5t98 -15.5q110 0 140 14q9 4 14 9q21 21 46.5 67.5t34.5 72.5h35z" />
    <glyph glyph-name="F" unicode="F" horiz-adv-x="614" 
d="M597 511h-37q-9 37 -43 82t-64 49q-32 4 -83 4h-115v-276h82q55 0 89 31q24 22 31 87h37v-281h-37q-2 23 -11.5 53.5t-19.5 40.5q-31 31 -89 31h-82v-236q0 -36 31 -49q27 -11 76 -14v-33h-323v33q65 4 79 9q31 12 31 49v493q0 37 -31 49q-35 15 -79 17v33h558v-172z" />
    <glyph glyph-name="G" unicode="G" horiz-adv-x="748" 
d="M754 273q-4 -1 -20.5 -3t-29.5 -4t-21 -6q-30 -14 -30 -52v-227l-23 -4l-52 58q-132 -50 -233 -50q-56 0 -110 22.5t-98 64t-71.5 108t-27.5 146.5q0 156 108 263t269 107q42 0 89 -16.5t71 -37.5l32 51h39l5 -250h-33q-68 213 -242 213q-91 0 -153.5 -85.5t-62.5 -237.5
q0 -132 65 -219t159 -87q79 0 122.5 32t48.5 84v56q0 46 -33 59q-30 11 -99 15v34h331v-34z" />
    <glyph glyph-name="H" unicode="H" horiz-adv-x="855" 
d="M807 0h-310v33q57 3 72 9q31 12 31 49v244h-345v-239q0 -36 31 -49q28 -12 72 -14v-33h-310v33q54 3 70 9q31 12 31 49v493q0 36 -31 49q-37 15 -70 17v33h310v-33q-43 -2 -72 -12q-31 -10 -31 -49v-212h345v207q0 36 -31 49q-36 15 -72 17v33h310v-33q-41 -2 -70 -12
q-31 -10 -31 -49v-493q0 -34 31 -49q23 -11 70 -14v-33z" />
    <glyph glyph-name="I" unicode="I" horiz-adv-x="408" 
d="M361 0h-314v33q58 3 73 9q31 12 31 48v495q0 36 -31 48q-39 15 -73 17v33h314v-33q-44 -2 -73 -12q-31 -10 -31 -48v-495q0 -35 31 -48q28 -11 73 -14v-33z" />
    <glyph glyph-name="J" unicode="J" horiz-adv-x="496" 
d="M469 650q-48 -3 -76 -12q-31 -10 -31 -49v-403q0 -28 -14.5 -62t-41 -66t-71 -53.5t-96.5 -21.5q-72 0 -105 29t-33 65q0 30 19.5 51t49.5 21t47.5 -18t17.5 -46q0 -40 -41 -63v-5q8 -2 18 -2q39 0 66 12t42 29.5t23.5 46.5t10.5 54t2 62v365q0 35 -31 49q-32 15 -81 17
v33h325v-33z" />
    <glyph glyph-name="K" unicode="K" horiz-adv-x="740" 
d="M772 0h-366v33q96 5 96 33q0 38 -231 269h-16v-239q0 -36 31 -49q28 -12 72 -14v-33h-310v33q54 3 70 9q31 12 31 49v493q0 36 -31 49q-37 15 -70 17v33h310v-33q-43 -2 -72 -12q-31 -10 -31 -49v-235h6q105 85 177 161t72 110q0 21 -79 25v33h288v-33q-1 0 -9.5 -0.5
t-14.5 -0.5t-17 -1.5t-20 -3t-20.5 -4.5t-20.5 -7t-18.5 -10.5t-16.5 -13.5l-46 -49.5l-45 -48.5l-38 -39.5l-45.5 -44.5l-46.5 -42q158 -164 248 -272q37 -45 91 -67q23 -10 72 -13v-33z" />
    <glyph glyph-name="L" unicode="L" horiz-adv-x="631" 
d="M632 204l-15 -204h-571v33q54 3 72 10q31 12 31 50v489q0 36 -31 50q-36 16 -72 18v33h313v-33q-41 -2 -73 -13q-31 -10 -31 -50v-458q0 -63 19 -77.5t100 -14.5q112 0 137 26q21 22 50.5 69.5t36.5 71.5h34z" />
    <glyph glyph-name="M" unicode="M" horiz-adv-x="966" 
d="M923 0h-330v33q71 4 87 12q33 17 33 51v494l-255 -579h-24q-14 47 -53 139l-189 454v-404q0 -109 34 -137q12 -10 47 -19.5t51 -10.5v-33h-305v33q71 8 93 24q33 23 33 138v346q0 57 -31 82t-90 27v33h240l218 -508l186 423q19 45 23 85h231v-33q-46 -3 -74 -12
q-31 -10 -31 -49v-493q0 -34 31 -49q22 -11 75 -14v-33z" />
    <glyph glyph-name="N" unicode="N" horiz-adv-x="798" 
d="M802 650q-15 -1 -48 -9t-44 -15q-19 -12 -26 -43.5t-7 -90.5v-499h-42l-443 558v-350q0 -109 34 -137q12 -9 49 -19.5t54 -11.5v-33h-310v33q14 1 49.5 10.5t43.5 15.5q33 23 33 137v332q0 53 -32 79q-18 14 -52.5 28t-54.5 15v33h211l413 -520v323q0 113 -34 135
q-14 9 -49 18.5t-53 10.5v33h308v-33z" />
    <glyph glyph-name="O" unicode="O" horiz-adv-x="777" 
d="M738 346q0 -165 -104 -266q-104 -96 -249 -96q-139 0 -239 94q-107 101 -107 256q0 164 97 261q102 104 253 104q147 0 254 -104q45 -45 70 -110.5t25 -138.5zM617 343q0 62 -12.5 116t-38.5 99.5t-71.5 72t-105.5 26.5q-107 0 -168 -84t-61 -234q0 -137 58.5 -225
t170.5 -88t170 87.5t58 229.5z" />
    <glyph glyph-name="P" unicode="P" horiz-adv-x="623" 
d="M591 519q0 -102 -76 -156.5t-182 -54.5h-78v-215q0 -38 31 -50q20 -8 79 -10v-33h-319v33q54 3 72 10q31 12 31 50v493q0 41 -31 51q-33 11 -76 13v33h335q91 0 152.5 -44.5t61.5 -119.5zM467 494q0 65 -33 108t-111 43h-68v-297h49q51 0 86 15.5t50 40.5t21 46.5t6 43.5
z" />
    <glyph glyph-name="Q" unicode="Q" horiz-adv-x="785" 
d="M858 -16q-30 -45 -86 -88t-122 -43q-63 0 -114.5 34t-72.5 111q-42 -13 -78 -13q-140 0 -239 93q-107 101 -107 256q0 164 97 261q102 104 253 104q147 0 254 -104q45 -45 70 -110.5t25 -138.5q0 -197 -173 -300q15 -68 58.5 -95t94.5 -27q31 0 61.5 25t50.5 57zM617 343
q0 62 -12.5 116t-38.5 99.5t-71.5 72t-105.5 26.5q-107 0 -168 -84t-61 -234q0 -155 62 -235q46 115 166 115q57 0 101 -37t62 -92q66 77 66 253zM457 30q-6 74 -32.5 105.5t-74.5 31.5q-23 0 -53 -20t-45 -68q52 -56 137 -56q24 0 68 7z" />
    <glyph glyph-name="R" unicode="R" horiz-adv-x="724" 
d="M744 0h-219q-23 113 -57 198q-22 55 -66.5 92t-95.5 37h-51v-234q0 -38 31 -50q18 -7 76 -10v-33h-316v33q54 3 72 10q31 12 31 50v494q0 40 -31 50q-32 11 -72 13v33h348q85 0 147 -39.5t62 -116.5q0 -39 -13.5 -68t-42.5 -49t-59 -32t-76 -25v-10q128 -30 167 -127
q7 -18 16 -43.5l16.5 -48.5l8.5 -26q7 -23 20 -36t20.5 -15.5t22.5 -5.5q32 -6 61 -8v-33zM480 517q0 65 -38.5 96.5t-99.5 31.5h-87v-279h64q69 0 115 41.5t46 109.5z" />
    <glyph glyph-name="S" unicode="S" horiz-adv-x="559" 
d="M521 195q0 -90 -66.5 -149t-164.5 -59q-106 0 -169 50l-35 -47h-34l-7 244h33q17 -45 35 -78t44.5 -64t62.5 -47.5t81 -16.5q123 0 123 120q0 41 -24.5 74.5t-68.5 51.5q-113 45 -143 59q-123 54 -123 178q0 79 59.5 132t145.5 53q38 0 80 -14.5t69 -35.5l34 47h34
l5 -237h-32q-18 49 -32.5 79.5t-38 61t-57 44.5t-78.5 14q-18 0 -39 -7t-40.5 -30.5t-19.5 -58.5q0 -42 20.5 -69.5t63.5 -51.5q27 -15 72 -32t64 -26q49 -22 77.5 -42t48.5 -56t20 -87z" />
    <glyph glyph-name="T" unicode="T" horiz-adv-x="644" 
d="M635 499h-34q-10 39 -44 89t-64 54q-32 4 -81 4h-37v-547q0 -37 31 -50q32 -13 82 -16v-33h-332v33q62 3 82 11q31 12 31 50v552h-37q-49 0 -81 -4q-30 -4 -64 -54t-44 -89h-34v184h626v-184z" />
    <glyph glyph-name="U" unicode="U" horiz-adv-x="798" 
d="M789 650q-18 -1 -48 -7.5t-44 -15.5q-33 -21 -33 -133v-294q0 -58 -25.5 -102t-66 -67.5t-83.5 -35t-85 -11.5q-126 0 -197 57t-71 139v404q0 34 -31 50q-27 13 -70 16v33h311v-33q-43 -2 -72 -12q-31 -10 -31 -49v-379q0 -24 3.5 -45.5t15.5 -46t31 -41.5t52.5 -28.5
t78.5 -11.5q56 0 96.5 17.5t60 46t27.5 56t8 57.5v274q0 112 -34 134q-17 11 -49.5 19t-52.5 9v33h309v-33z" />
    <glyph glyph-name="V" unicode="V" horiz-adv-x="683" 
d="M709 650q-34 -2 -65 -19q-32 -18 -52 -63l-245 -576h-42l-214 592q-11 29 -45 49q-27 15 -66 17v33h310v-33q-97 -6 -97 -26q0 -12 5 -25l166 -456l158 375q23 58 23 89q0 35 -115 43v33h279v-33z" />
    <glyph glyph-name="W" unicode="W" horiz-adv-x="1000" 
d="M1022 650q-34 -2 -65 -19q-36 -21 -52 -63l-205 -576h-41l-159 509l-186 -509h-43l-181 592q-8 29 -40 49q-27 15 -65 17v33h305v-33q-99 -6 -99 -26q0 -13 4 -25l136 -437l147 399q0 53 -40 73q-25 13 -82 16v33h311v-33q-96 -5 -96 -26q0 -11 4 -25l24.5 -74.5
l53.5 -163.5l64 -195q80 223 118 351q20 69 20 90q0 36 -107 43v33h274v-33z" />
    <glyph glyph-name="X" unicode="X" horiz-adv-x="764" 
d="M768 0h-365v33q4 0 18.5 0.5t20.5 1t18.5 2t18.5 3.5t13.5 5.5t10.5 8.5t3 12q0 9 -8.5 26t-28 45.5l-33 47.5l-43 58.5t-38.5 52.5q-164 -199 -164 -230q0 -5 1.5 -9.5t5.5 -7.5l7.5 -5.5t10 -4t11.5 -2.5t13.5 -2t13.5 -1t14.5 -0.5t13.5 -0.5v-33h-285v33q46 3 71 13
q46 20 85 67l173 218l-176 241q-33 43 -76 65q-20 10 -75 13v33h365v-33q-4 0 -14 -0.5t-15.5 -1t-15 -1t-15 -1.5l-13.5 -2.5t-12 -4l-8.5 -5.5t-6.5 -7.5t-2 -9.5q0 -29 135 -211q147 179 147 211q0 10 -7.5 17t-24 10t-27 4t-32.5 2v33h285v-33q-46 -3 -71 -13
q-29 -13 -46 -26.5t-39 -40.5l-157 -197l191 -260q28 -36 77 -69q10 -7 75 -11v-33z" />
    <glyph glyph-name="Y" unicode="Y" horiz-adv-x="627" 
d="M661 650q-32 -3 -58 -19q-21 -12 -30 -20t-28 -31q-53 -67 -152 -246q-35 -63 -35 -112v-123q0 -37 31 -50q32 -13 82 -16v-33h-332v33q62 3 82 11q31 12 31 50v164q0 23 -26 75q-56 110 -127 233q-26 45 -66 68q-25 14 -64 16v33h322v-33q-4 0 -16.5 -0.5t-19.5 -1
t-18.5 -1.5t-18 -3t-14 -4t-11 -5.5t-3.5 -8.5q0 -18 153 -290q160 251 160 277q0 20 -27 27t-75 10v33h260v-33z" />
    <glyph glyph-name="Z" unicode="Z" horiz-adv-x="628" 
d="M619 215l-23 -215h-591v12l462 634h-170q-56 0 -81 -5q-37 -8 -77.5 -57.5t-58.5 -94.5h-34l21 194h539v-12l-462 -634h192q120 0 147 26q30 28 59 72.5t43 79.5h34z" />
    <glyph glyph-name="bracketleft" unicode="[" horiz-adv-x="475" 
d="M415 -136h-335v849h335v-44h-248v-761h248v-44z" />
    <glyph glyph-name="backslash" unicode="\" horiz-adv-x="420" 
d="M398 -199l-50 -13l-313 951l51 13z" />
    <glyph glyph-name="bracketright" unicode="]" horiz-adv-x="475" 
d="M395 -136h-335v44h248v761h-248v44h335v-849z" />
    <glyph glyph-name="asciicircum" unicode="^" horiz-adv-x="883" 
d="M851 593q0 -60 -40 -94t-111 -34q42 -22 63.5 -58.5t21.5 -105.5q0 -39 -13.5 -81t-46 -85t-78.5 -76.5t-118.5 -55t-160.5 -21.5q-129 0 -219 68t-90 167q0 31 8 55t25.5 42t31 28t39.5 26q-32 25 -49 53t-17 75q0 49 45.5 94t107.5 45q72 0 118 -32.5t61 -89.5l-22 -13
q-27 43 -53 61.5t-66 18.5q-50 0 -82 -33.5t-32 -85.5q0 -59 18 -76q42 15 87 15q30 0 47.5 -12.5t17.5 -31.5q0 -17 -11.5 -28.5t-33.5 -11.5t-42 6t-30.5 11.5t-31.5 18.5q-45 -19 -58 -50q-7 -16 -7 -36q0 -81 88.5 -142t235.5 -61q132 0 210.5 73t78.5 170q0 83 -43 123
t-106 40q-46 0 -80 -25t-34 -66q0 -34 10 -50q10 25 22 37t34 12q24 0 36 -15t12 -32q0 -56 -61 -56q-86 0 -86 116q0 38 16.5 66.5t44 43t55.5 21t57 6.5q13 0 55.5 -2.5t53.5 -2.5q39 0 65.5 25t26.5 53t-15 36q-15 -40 -43 -40q-44 0 -44 45q0 24 15 40.5t45 16.5
q27 0 44.5 -20.5t22.5 -42.5t5 -42z" />
    <glyph glyph-name="underscore" unicode="_" horiz-adv-x="600" 
d="M605 -157h-610v49h610v-49z" />
    <glyph glyph-name="grave" unicode="`" 
d="M358 546l-14 -12l-148 114q-20 16 -28 27t-8 28q0 15 11.5 26.5t28.5 11.5q36 0 61 -43q49 -82 97 -152z" />
    <glyph glyph-name="a" unicode="a" horiz-adv-x="498" 
d="M507 119q-7 -129 -110 -129q-65 0 -88 67h-3q-59 -69 -151 -69q-52 0 -84 30.5t-32 79.5q0 58 26 88t72 47q12 5 79 28t92 36v45q0 11 -2.5 24t-9.5 32t-26.5 31.5t-48.5 12.5q-43 0 -65 -24q0 -7 4.5 -28.5t4.5 -33.5q0 -17 -16 -30.5t-42 -13.5q-23 0 -34 15.5
t-11 38.5q0 44 52.5 76.5t112.5 32.5q86 0 129.5 -30t43.5 -122q0 -52 -2.5 -136.5t-2.5 -93.5q0 -14 11 -31.5t33 -17.5q34 0 36 75h32zM309 257q-43 -13 -70 -24t-53 -27.5t-38 -39t-12 -51.5q0 -75 69 -75q35 0 56.5 13t43.5 38z" />
    <glyph glyph-name="b" unicode="b" horiz-adv-x="556" 
d="M521 229q0 -103 -68 -173t-159 -70q-70 0 -148 44l-37 -56l-29 7q4 53 4 185v468q0 16 -7.5 33t-19.5 24q-17 11 -66 14v30l177 11l7 -7v-325l3 -1q57 62 135 62q88 0 148 -68t60 -178zM419 228q0 81 -34.5 138t-105.5 57q-63 0 -104 -46v-271q11 -32 38.5 -58.5
t72.5 -26.5q59 0 96 54.5t37 152.5z" />
    <glyph glyph-name="c" unicode="c" horiz-adv-x="450" 
d="M449 107q-30 -52 -81.5 -85.5t-110.5 -33.5q-108 0 -165.5 67.5t-57.5 177.5q0 98 64 170t165 72q76 0 118 -34t42 -84q0 -64 -56 -64q-20 0 -38 12t-18 38q0 24 7 39t7 22q-6 37 -64 37q-52 0 -89 -50t-37 -154q0 -86 40 -142t106 -56q46 0 77.5 21t59.5 67z" />
    <glyph glyph-name="d" unicode="d" horiz-adv-x="571" 
d="M560 9l-168 -11l-7 7v43l-4 1q-59 -62 -133 -62q-90 0 -152 69t-62 181q0 102 69 170t160 68q63 0 121 -29v182q-4 43 -26 58q-23 15 -88 20v29l198 11l7 -7v-641q1 -32 26 -49q11 -7 59 -10v-30zM384 88v272q-10 31 -38.5 55.5t-74.5 24.5q-59 0 -97 -58t-38 -156
q0 -80 36.5 -134.5t109.5 -54.5q55 0 102 51z" />
    <glyph glyph-name="e" unicode="e" horiz-adv-x="472" 
d="M452 109q-28 -55 -78.5 -88t-113.5 -33q-110 0 -168 69.5t-58 177.5q0 97 59.5 168.5t156.5 71.5q98 0 144.5 -55t46.5 -141v-26h-309q0 -214 156 -214q48 0 76.5 21t56.5 68zM345 290q0 151 -96 151q-49 0 -82 -42t-35 -111z" />
    <glyph glyph-name="f" unicode="f" horiz-adv-x="323" 
d="M427 659q0 -17 -15 -34.5t-39 -17.5q-21 0 -39.5 11t-18.5 34q0 8 3 28t3 27q-7 7 -24 7q-49 0 -72 -45.5t-27 -157.5q0 -7 -0.5 -24.5t-0.5 -26.5h124v-44h-124v-330q0 -34 27 -44q21 -9 65 -11v-31h-254v31q29 2 44 6q27 9 27 44v335h-100v44h100v21q0 133 68 205
q57 61 147 61q52 0 79 -26t27 -62z" />
    <glyph glyph-name="g" unicode="g" horiz-adv-x="513" 
d="M513 426q0 -22 -11 -35.5t-31 -13.5q-24 0 -33.5 14t-9.5 46q-37 0 -62 -18v-3q38 -41 38 -95q0 -63 -52 -104t-117 -41h-58q-35 -13 -35 -43q0 -22 15.5 -33t34 -13.5t46.5 -3.5h11l62 -3.5t50 -2.5q49 -2 88.5 -39.5t39.5 -97.5q0 -74 -63.5 -120t-187.5 -46
q-218 0 -218 125q0 46 36 76.5t109 32.5v7q-19 6 -31.5 11t-28.5 15t-24 25.5t-8 36.5q0 54 78 85v6q-102 47 -102 132q0 68 51 108.5t128 40.5q30 0 61.5 -7.5t51 -15t22.5 -7.5q48 30 103 30q18 0 32.5 -14.5t14.5 -34.5zM311 323q0 52 -21 85.5t-65 33.5q-82 0 -82 -116
q0 -51 23 -84t60 -33q42 0 63.5 32.5t21.5 81.5zM409 -79q0 54 -51 69q-51 7 -155 7q-53 -10 -75.5 -34t-22.5 -68q0 -35 36.5 -60.5t113.5 -25.5q154 0 154 112z" />
    <glyph glyph-name="h" unicode="h" horiz-adv-x="580" 
d="M557 0h-236v31q32 2 47 6q27 9 27 44v231q0 49 -24.5 78t-58.5 29q-48 0 -80.5 -23.5t-44.5 -47.5v-262q0 -32 27 -44q20 -10 47 -11v-31h-236v31q29 2 44 6q27 9 27 44v553q-4 42 -27 58q-15 10 -67 13v30l178 11l7 -7v-346h2q48 46 74 60q39 22 90 22q68 0 101 -42
t33 -116v-232q0 -32 26 -44q20 -9 44 -10v-31z" />
    <glyph glyph-name="i" unicode="i" horiz-adv-x="291" 
d="M206 658q0 -27 -18 -46t-45 -19q-25 0 -43 18t-18 43q0 26 18 44.5t43 18.5q27 0 45 -17.5t18 -41.5zM268 0h-233v31q29 2 44 6q27 9 27 44v280q-3 34 -27 50q-21 14 -59 16v30l170 11l7 -7v-374q0 -35 27 -45q25 -10 44 -11v-31z" />
    <glyph glyph-name="j" unicode="j" horiz-adv-x="295" 
d="M215 658q0 -27 -18 -46t-45 -19q-25 0 -43 18t-18 43q0 26 18 44.5t43 18.5q27 0 45 -17.5t18 -41.5zM208 41q0 -139 -63 -205q-59 -62 -130 -62q-48 0 -75.5 21t-27.5 54q0 19 16 36t40 17q23 0 40 -12.5t17 -36.5q0 -11 -4 -26t-4 -16q12 -4 20 -4q45 0 62.5 46
t17.5 163v341q-4 37 -27 53q-8 5 -37 11t-45 7v29l193 11l7 -7v-420z" />
    <glyph glyph-name="k" unicode="k" horiz-adv-x="539" 
d="M548 0h-159q-21 72 -68 145t-91 73q-26 0 -43 -15v-117q0 -34 27 -44q24 -10 47 -11v-31h-236v31q29 2 44 6q27 9 27 44v552q-3 42 -27 58q-16 11 -67 14v30l178 11l7 -7v-505q100 94 152 149q13 13 13 22q0 20 -62 27v30h210v-29q-77 -22 -121 -60q-54 -46 -92 -84
q20 -10 37.5 -21.5t33.5 -28.5l26 -28t24 -35l19 -33l20.5 -38.5l18.5 -35.5q10 -18 43 -32q17 -7 39 -7v-30z" />
    <glyph glyph-name="l" unicode="l" horiz-adv-x="284" 
d="M259 0h-233v31q29 2 44 6q27 9 27 44v550q-4 41 -27 57q-21 14 -70 17v30l181 11l7 -7v-652q0 -33 27 -45q21 -10 44 -11v-31z" />
    <glyph glyph-name="m" unicode="m" horiz-adv-x="879" 
d="M859 0h-235v31q27 2 43 6q27 9 27 44v232q0 50 -23.5 78t-57.5 28q-82 0 -122 -70v-263q0 -33 26 -45q20 -9 44 -10v-31h-230v31q25 1 41 6q27 9 27 44v232q0 50 -23.5 78t-57.5 28q-81 0 -122 -71v-261q0 -33 27 -45q21 -10 45 -11v-31h-234v31q29 2 44 6q27 9 27 44
v282q-3 33 -27 49q-20 13 -51 15v30l161 11l7 -7v-69h3l14.5 14.5t15.5 15l15 13t18 13.5t19.5 10.5t23 9t25 5t30.5 2.5q45 0 79 -24t50 -62l15 14.5t16.5 15.5l16 14t18.5 14l20 11t24 9.5t25.5 5t30.5 2.5q67 0 99.5 -44t32.5 -119v-226q0 -33 26 -45q20 -8 47 -10v-31z
" />
    <glyph glyph-name="n" unicode="n" horiz-adv-x="589" 
d="M566 0h-236v31q32 2 47 6q27 9 27 44v231q0 49 -24.5 78t-58.5 29q-48 0 -80.5 -23.5t-44.5 -47.5v-262q0 -32 27 -44q20 -9 47 -11v-31h-236v31q29 2 44 6q27 9 27 44v280q-4 37 -27 53q-17 11 -49 13v30l160 11l7 -7v-68h2l12 12t14 13.5t13.5 12t16 12.5t16 10t19 9.5
l20.5 6t24.5 5t26.5 1.5q68 0 102 -42t34 -116v-232q0 -32 26 -44q20 -9 44 -10v-31z" />
    <glyph glyph-name="o" unicode="o" horiz-adv-x="528" 
d="M494 236q0 -107 -63 -178.5t-172 -71.5q-94 0 -160 67t-66 176t64 177.5t169 68.5q103 0 165.5 -67.5t62.5 -171.5zM393 235q0 87 -30.5 146.5t-97.5 59.5q-37 0 -64 -18.5t-41 -49.5t-20 -64.5t-6 -71.5q0 -95 32.5 -156t98.5 -61q63 0 95.5 60.5t32.5 154.5z" />
    <glyph glyph-name="p" unicode="p" horiz-adv-x="568" 
d="M533 227q0 -102 -68 -170.5t-159 -68.5q-73 0 -115 31h-4v-154q0 -35 28 -46q30 -12 69 -14v-31h-269v31q34 2 55 8q26 8 26 46v504q-3 34 -26 50q-18 12 -55 14v30l164 11l7 -6v-52l4 -1q61 66 135 66q88 0 148 -69t60 -179zM431 228q0 81 -34.5 138t-105.5 57
q-61 0 -104 -50v-275q10 -29 38 -52.5t73 -23.5q59 0 96 54t37 152z" />
    <glyph glyph-name="q" unicode="q" horiz-adv-x="556" 
d="M561 -226h-260v31q35 2 56 8q27 8 27 46v186l-3 1q-55 -58 -133 -58q-90 0 -152 69t-62 180q0 102 69.5 170t161.5 68q24 0 45.5 -3.5t38 -10t27 -12t23 -13.5t15.5 -9l43 62l26 -4q-8 -160 -8 -175v-443q0 -36 27 -48q23 -10 59 -14v-31zM384 84v278q-10 31 -38 54.5
t-75 23.5q-59 0 -97 -58t-38 -156q0 -80 36 -134t110 -54q58 0 102 46z" />
    <glyph glyph-name="r" unicode="r" horiz-adv-x="402" 
d="M398 407q0 -29 -15.5 -48.5t-40.5 -19.5q-51 0 -51 48q0 4 1.5 10.5t3.5 13.5t2 8q-34 0 -61.5 -23t-40.5 -46v-264q0 -34 27 -44q21 -9 65 -11v-31h-254v31q29 2 44 6q27 9 27 44v280q-4 37 -27 53q-17 11 -49 13v30l160 11l7 -7v-68h2q63 80 133 80q28 0 47.5 -19
t19.5 -47z" />
    <glyph glyph-name="s" unicode="s" horiz-adv-x="410" 
d="M373 132q0 -66 -48.5 -106t-121.5 -40q-35 0 -70 13t-49 28l-10 -32h-34l-5 162h32q10 -47 48 -91.5t92 -44.5q94 0 94 80q0 38 -26 57.5t-90 38.5q-138 41 -138 144q0 58 41.5 96t110.5 38q67 0 104 -27l8 28h32l7 -145h-32q-8 47 -39 78t-81 31q-38 0 -58.5 -18
t-20.5 -47q0 -39 23.5 -55.5t92.5 -39.5q68 -22 103 -56t35 -92z" />
    <glyph glyph-name="t" unicode="t" horiz-adv-x="348" 
d="M345 124q-6 -59 -38.5 -96.5t-89.5 -37.5q-122 0 -122 137v288h-93v45h95v145h87v-145h135v-45h-134v-275q0 -46 16 -69t55 -23q20 0 32.5 12t16.5 26.5t6 37.5h34z" />
    <glyph glyph-name="u" unicode="u" horiz-adv-x="572" 
d="M549 9l-157 -11l-7 7v61h-3q-28 -28 -41 -39.5t-46 -25t-73 -13.5q-67 0 -98.5 44t-31.5 119v212q-3 34 -26 50q-17 11 -50 13v30l161 12l7 -7v-317q0 -50 22.5 -77.5t56.5 -27.5q78 0 121 69v258q-3 34 -26 50q-12 8 -65 10v30l175 12l7 -7v-364q3 -32 26 -48
q12 -8 48 -10v-30z" />
    <glyph glyph-name="v" unicode="v" horiz-adv-x="475" 
d="M491 433q-55 -10 -75 -56l-117 -276q-21 -49 -39 -108h-38l-159 389q-18 41 -74 49v31h222v-33q-57 -2 -57 -21q0 -4 7 -21q8 -23 24.5 -64l41 -102.5l39.5 -99.5h6l101 247q5 12 5 28q0 14 -23.5 24t-43.5 12v30h180v-29z" />
    <glyph glyph-name="w" unicode="w" horiz-adv-x="742" 
d="M760 432q-23 -2 -47 -19t-33 -41l-108 -273q-21 -52 -38 -106h-31l-122 322q-17 -38 -46.5 -117t-37.5 -99q-23 -56 -39 -106h-33l-158 388q-8 19 -29.5 33.5t-43.5 16.5v31h216v-33q-53 -2 -53 -21q0 -4 7 -21l104 -263h4q69 178 90 236q-1 2 -3 6.5t-4.5 9.5t-6.5 12
q-21 38 -66 43v31h207v-32q-52 -2 -52 -20q0 -6 7 -23l100 -264h4q53 138 91 249q5 15 5 26q0 16 -23.5 25t-40.5 9v30h180v-30z" />
    <glyph glyph-name="x" unicode="x" horiz-adv-x="476" 
d="M473 0h-217v31q54 4 54 17q0 4 -14 29l-80 120q-65 -85 -87 -118q-10 -13 -10 -23q0 -21 59 -26v-30h-176v29q65 24 90 56l23 28.5l40 50.5l43 57l-115 170q-12 18 -26.5 27.5t-23.5 11t-24 1.5v31h206v-31q-46 0 -46 -10q0 -5 9 -21l79 -120q48 66 76 110q5 7 5 18
q0 12 -50 24v30h173v-29q-65 -20 -92 -52q-45 -56 -95 -125l122 -179q14 -22 28.5 -31t48.5 -15v-31z" />
    <glyph glyph-name="y" unicode="y" horiz-adv-x="470" 
d="M488 433q-16 -3 -40 -19.5t-34 -36.5l-110 -263l-52 -129q-33 -74 -57.5 -118t-47.5 -63.5t-39 -24.5t-44 -5q-26 0 -50 17t-24 51q0 21 16 39.5t41 18.5q21 0 36.5 -11.5t15.5 -38.5v-25q27 6 57.5 49.5t47.5 84.5l16 41l-157 382q-18 41 -74 49v31h219v-33
q-54 -2 -54 -21q0 -4 7 -21q0 -1 107 -265h4l99 246q6 21 6 28q0 13 -23.5 23.5t-41.5 12.5v30h176v-29z" />
    <glyph glyph-name="z" unicode="z" horiz-adv-x="442" 
d="M415 0h-389v25l272 401h-41h-45.5t-34.5 -1t-36.5 -3.5t-23.5 -6.5q-29 -11 -46 -93h-27v140h367v-19l-276 -407q33 -1 84 -1q35 0 99 3q30 1 45 39q13 33 26 84h26v-161z" />
    <glyph glyph-name="braceleft" unicode="{" horiz-adv-x="430" 
d="M398 -169q-115 0 -168.5 35t-53.5 136q0 21 8 65.5t8 63.5q0 66 -41 92.5t-120 32.5v63q80 7 120.5 33t40.5 92q0 19 -8 63.5t-8 65.5q0 101 53.5 136t168.5 35v-33q-24 -2 -38 -3.5t-34 -8t-31 -17t-19 -31t-8 -48.5q0 -17 4.5 -55.5t4.5 -58.5q0 -50 -13.5 -85t-41 -55
t-54.5 -30.5t-69 -18.5v-25q42 -8 69 -18.5t54.5 -30.5t41 -55t13.5 -85q0 -20 -4.5 -58t-4.5 -56q0 -28 8 -48.5t19 -31t31 -17t34 -8t38 -3.5v-33z" />
    <glyph glyph-name="bar" unicode="|" horiz-adv-x="318" 
d="M185 -207h-52v953h52v-953z" />
    <glyph glyph-name="braceright" unicode="}" horiz-adv-x="430" 
d="M399 256q-79 -6 -120 -32.5t-41 -92.5q0 -19 8 -63.5t8 -65.5q0 -101 -53.5 -136t-168.5 -35v33q24 2 38 3.5t34 8t31 17t19 31t8 48.5q0 18 -4.5 56t-4.5 58q0 50 13.5 85t41 55t54.5 30.5t69 18.5v25q-42 8 -69 18.5t-54.5 30.5t-41 55t-13.5 85q0 20 4.5 58.5
t4.5 55.5q0 28 -8 48.5t-19 31t-31 17t-34 8t-38 3.5v33q115 0 168.5 -35t53.5 -136q0 -21 -8 -65.5t-8 -63.5q0 -66 40.5 -92t120.5 -33v-63z" />
    <glyph glyph-name="asciitilde" unicode="~" horiz-adv-x="540" 
d="M484 326q-13 -47 -52.5 -86t-85.5 -39q-44 0 -97.5 22t-75.5 22q-38 0 -59.5 -12.5t-38.5 -44.5l-20 7q13 47 52.5 86t85.5 39q41 0 95.5 -22t77.5 -22q38 0 59.5 12.5t38.5 44.5z" />
    <glyph glyph-name="nbspace" unicode="&#xa0;" horiz-adv-x="120" 
 />
    <glyph glyph-name="exclamdown" unicode="&#xa1;" horiz-adv-x="365" 
d="M247 629q0 -28 -19.5 -47.5t-47.5 -19.5t-47.5 19.5t-19.5 47.5t19.5 47t47.5 19t47.5 -19t19.5 -47zM242 54q0 -28 -17.5 -48t-44.5 -20t-44.5 20t-17.5 48q0 17 7 78l19 160.5t19 177.5h36q6 -80 17 -177l18.5 -159.5t7.5 -79.5z" />
    <glyph glyph-name="cent" unicode="&#xa2;" horiz-adv-x="480" 
d="M459 177q-30 -52 -81.5 -85.5t-110.5 -33.5q-30 0 -50 4l-43 -180l-35 8l43 181q-68 24 -103 85t-35 147q0 98 64 170t165 72q13 0 19 -1l30 126l36 -8l-29 -122q58 -10 91 -41.5t33 -71.5q0 -30 -15 -47t-41 -17q-20 0 -35.5 13.5t-15.5 36.5q0 24 9.5 39t9.5 22
q-4 24 -44 32l-90 -383q26 -14 60 -14q46 0 77.5 21t59.5 67zM285 511h-14q-52 0 -89.5 -50t-37.5 -154q0 -102 55 -160z" />
    <glyph glyph-name="sterling" unicode="&#xa3;" horiz-adv-x="705" 
d="M664 191q-5 -41 -18 -78t-37.5 -74.5t-68.5 -60t-102 -22.5q-72 0 -186 67q-24 -30 -65.5 -49t-75.5 -19q-113 0 -113 76q0 38 33.5 65.5t89.5 27.5q69 0 139 -30q0 120 -13 164h-135v39h130q-1 4 -6 26.5t-8 47t-3 54.5q0 108 61 182.5t173 74.5q81 0 126.5 -45.5
t45.5 -108.5q0 -31 -16.5 -56.5t-45.5 -25.5q-60 0 -60 58q0 19 11.5 32t23.5 20t12 10q0 82 -99 82q-22 0 -42.5 -7t-42 -23t-34.5 -50t-13 -81q0 -17 7.5 -90t7.5 -100h169v-39h-170q-2 -41 -16.5 -92t-34.5 -80l39 -14t39 -13l32.5 -8.5t41.5 -7.5t44 -2q37 0 64.5 13.5
t43 37.5t23.5 48t13 55zM227 37q-74 41 -132 41q-31 0 -48 -15.5t-17 -30.5q0 -16 22 -28t58 -12q70 0 117 45z" />
    <glyph glyph-name="currency" unicode="&#xa4;" horiz-adv-x="883" 
d="M871 30l-48 -125h-299v38q74 45 106.5 68t66.5 56q10 10 18 19t13.5 18.5t10 16t7 16t4 14t2 14t0.5 12.5v13.5v12.5q0 38 -20.5 58t-52.5 20q-34 0 -54 -14t-22 -37q1 -3 11.5 -15t10.5 -24q0 -14 -11.5 -27.5t-35.5 -13.5q-21 0 -31.5 14t-10.5 31q0 37 40.5 75.5
t115.5 38.5q63 0 104.5 -32t41.5 -81q0 -65 -41.5 -108.5t-166.5 -108.5l-20 -16h167q15 0 30.5 15.5t22 27l18.5 33.5zM796 602l-671 -714l-30 29l670 714zM337 220h-251v28q58 4 64 6q24 7 24 31v267q-13 -3 -36 -3q-27 0 -84 39l9 20q43 -17 77 -17q49 0 110 29h14
q-11 -53 -11 -104v-227q0 -24 23 -32q13 -5 61 -9v-28z" />
    <glyph glyph-name="yen" unicode="&#xa5;" horiz-adv-x="579" 
d="M588 579q-29 -3 -49 -16q-18 -10 -26 -17t-24 -27q-47 -59 -131 -212q-12 -22 -16 -33h152v-39h-161q-2 -10 -2 -29v-112q0 -35 29 -48q21 -10 75 -13v-33h-310v33q65 4 80 9q14 5 22.5 18t8.5 29v146h-158v39h152q-7 17 -15 32q-41 82 -109 201q-22 38 -57 58
q-20 12 -56 14v28h282v-28q-4 0 -14 -0.5t-16.5 -1t-16 -1.5t-16 -2.5t-12.5 -3.5t-9 -5t-3 -7q0 -15 127 -239q133 209 133 228q0 9 -7 15.5t-23.5 9.5t-26 4t-31.5 3v28h228v-28z" />
    <glyph glyph-name="section" unicode="&#xa7;" horiz-adv-x="570" 
d="M495 177q0 -102 -133 -123q44 -66 44 -132q0 -60 -45.5 -104.5t-112.5 -44.5q-62 0 -101 29.5t-39 71.5q0 27 16.5 43.5t41.5 16.5q20 0 34.5 -13.5t14.5 -31.5q0 -12 -7.5 -27t-7.5 -24q0 -34 55 -34q36 0 58.5 26.5t22.5 77.5q0 34 -11.5 58.5t-42.5 65.5
q-20 27 -63 72.5t-68 75.5q-41 49 -58.5 82.5t-17.5 76.5q0 56 39 89t91 40q-40 60 -40 122q0 59 47 103.5t113 44.5q58 0 94.5 -32.5t36.5 -74.5q0 -25 -15 -41.5t-39 -16.5q-19 0 -33.5 13.5t-14.5 31.5q0 13 7 29t7 27q0 32 -53 32q-38 0 -61 -26t-23 -69
q0 -24 7.5 -44.5t16.5 -34t33 -45.5q22 -29 66 -78.5l62 -70.5q43 -51 61 -84.5t18 -76.5zM424 165q0 39 -42 89l-81.5 96t-75.5 90q-43 -9 -63 -28.5t-20 -55.5q0 -41 44 -94q27 -33 81 -91.5t75 -89.5q82 21 82 84z" />
    <glyph glyph-name="dieresis" unicode="&#xa8;" 
d="M417 659q0 -25 -17 -43t-42 -18q-24 0 -41 17t-17 40q0 24 17 41.5t41 17.5q25 0 42 -16.5t17 -38.5zM200 659q0 -25 -17.5 -43t-42.5 -18q-23 0 -40 17t-17 40q0 24 17 41.5t40 17.5q26 0 43 -16.5t17 -38.5z" />
    <glyph glyph-name="copyright" unicode="&#xa9;" horiz-adv-x="942" 
d="M903 251q0 -178 -127 -305t-304 -127q-179 0 -306 127t-127 305q0 177 127.5 303.5t305.5 126.5q177 0 304 -126.5t127 -303.5zM865 251q0 164 -114.5 279.5t-278.5 115.5q-165 0 -280 -115.5t-115 -279.5q0 -166 115 -282t280 -116q164 0 278.5 116t114.5 282zM669 155
q-64 -142 -191 -142q-109 0 -174 63.5t-65 170.5q0 104 71.5 173.5t181.5 69.5q27 0 58.5 -8.5t48.5 -21.5l22 37l29 -1l4 -181h-25q-23 67 -56.5 104t-99.5 37q-55 0 -94 -52t-39 -152q0 -86 45 -138.5t113 -52.5q57 0 90 27.5t57 77.5z" />
    <glyph glyph-name="ordfeminine" unicode="&#xaa;" horiz-adv-x="450" 
d="M393 376q-6 -95 -80 -95q-48 0 -62 47h-3q-43 -48 -105 -48q-38 0 -61 21.5t-23 57.5q0 65 76 95q14 6 55 20.5t57 22.5v30q0 11 -2 22.5t-16 27t-39 15.5q-29 0 -43 -14q0 -5 3 -19.5t3 -22.5q0 -13 -12 -23t-31 -10q-17 0 -26 11.5t-9 27.5q0 32 38 55.5t81 23.5
q61 0 92.5 -21.5t31.5 -86.5q0 -36 -2 -93.5t-2 -64.5q0 -9 5.5 -20t19.5 -11q27 0 30 52h24zM379 155h-313v46h313v-46zM248 467q-60 -19 -89 -39t-29 -60q0 -49 48 -49q38 0 67 36z" />
    <glyph glyph-name="guillemotleft" unicode="&#xab;" horiz-adv-x="560" 
d="M509 33l-21 -18l-207 167q-11 8 -14 11t-5.5 10.5t-2.5 20.5q0 17 4 23.5t16 16.5q106 81 209 168l21 -18l-157 -192zM300 33l-21 -18l-207 167q-11 8 -14 11t-5.5 10.5t-2.5 20.5q0 17 4 23.5t16 16.5q106 81 209 168l21 -18l-157 -192z" />
    <glyph glyph-name="registered" unicode="&#xae;" horiz-adv-x="630" 
d="M577 443q0 -107 -77.5 -184t-184.5 -77q-108 0 -185 77t-77 184t77 183.5t185 76.5q107 0 184.5 -76.5t77.5 -183.5zM549 443q0 97 -68.5 166.5t-165.5 69.5t-165.5 -69.5t-68.5 -166.5q0 -98 68.5 -167.5t165.5 -69.5t165.5 69.5t68.5 167.5zM483 306h-97q-11 47 -25 85
q-8 22 -26 37t-39 15h-19v-95q0 -14 11 -18q12 -4 34 -4v-20h-139v20q21 0 33 4q11 4 11 18v207q0 16 -11 18q-10 4 -33 6v20h150q37 0 63.5 -17.5t26.5 -51.5q0 -33 -20.5 -48t-60.5 -26v-2q53 -11 71 -53q2 -4 17 -50q5 -17 25 -22q12 -3 28 -3v-20zM366 526
q0 26 -15.5 38.5t-39.5 12.5h-34v-111h24q27 0 46 16.5t19 43.5z" />
    <glyph glyph-name="macron" unicode="&#xaf;" 
d="M415 596h-330v62h330v-62z" />
    <glyph glyph-name="degree" unicode="&#xb0;" horiz-adv-x="410" 
d="M364 550q0 -64 -49.5 -110t-111.5 -46q-65 0 -111 41.5t-46 113.5q0 67 48.5 114t108.5 47q66 0 113.5 -41.5t47.5 -118.5zM293 548q0 57 -24 89t-65 32q-40 0 -64 -32.5t-24 -83.5q0 -53 24 -85.5t66 -32.5q36 0 61.5 30.5t25.5 82.5z" />
    <glyph glyph-name="plusminus" unicode="&#xb1;" horiz-adv-x="877" 
d="M853 0h-232v31q27 2 43 6q28 9 28 45v511q-32 9 -32 36q0 14 6 25t13 17t7 7q-1 6 -6 13.5t-23 15.5t-44 8q-52 0 -88 -50.5t-36 -157.5v-47h123v-41h-123v-332q0 -35 27 -45q24 -10 50 -11v-31h-239v31q29 2 44 6q27 9 27 45v340h-201v-335q0 -35 27 -45q25 -10 45 -11
v-31h-234v31q29 2 44 6q27 9 27 45v338h-102v40h102v16q0 119 72 200q23 26 64.5 45t84.5 19q104 0 133 -72q6 9 22.5 25t55.5 35t81 19q57 0 107 -24l34 23l22 -7v-651q0 -34 27 -46q21 -10 44 -11v-31zM415 587q-46 2 -46 38q0 15 2.5 24.5t6.5 16t4 7.5q-6 34 -62 34
q-51 0 -87.5 -48.5t-36.5 -156.5v-42h204v21q0 54 15 106z" />
    <glyph glyph-name="acute" unicode="&#xb4;" 
d="M340 703q0 -17 -8 -28t-28 -27l-148 -114l-14 12q48 70 97 152q25 43 61 43q17 0 28.5 -11.5t11.5 -26.5z" />
    <glyph glyph-name="paragraph" unicode="&#xb6;" horiz-adv-x="619" 
d="M603 651h-137v-776h-38v776h-86v-776h-38v467h-25q-64 0 -109.5 14.5t-68.5 40t-33 53t-10 60.5q0 67 45.5 120t140.5 53h359v-32z" />
    <glyph glyph-name="periodcentered" unicode="&#xb7;" horiz-adv-x="290" 
d="M214 272q0 -28 -20 -47.5t-48 -19.5t-48 19.5t-20 47.5t20 48t48 20t48 -20t20 -48z" />
    <glyph glyph-name="cedilla" unicode="&#xb8;" 
d="M355 -131q0 -106 -212 -106v36q84 0 108 9q32 12 32 43q0 17 -17 25.5t-33.5 10t-43.5 1.5v120h34v-63q132 0 132 -76z" />
    <glyph glyph-name="ordmasculine" unicode="&#xba;" horiz-adv-x="450" 
d="M387 453q0 -74 -44.5 -124.5t-121.5 -50.5q-65 0 -111.5 47t-46.5 123t45 124t118 48q72 0 116.5 -47.5t44.5 -119.5zM382 155h-314v46h314v-46zM310 452q0 59 -20 98.5t-65 39.5q-46 0 -65.5 -40t-19.5 -97q0 -63 20.5 -104t64.5 -41q43 0 64 40.5t21 103.5z" />
    <glyph glyph-name="guillemotright" unicode="&#xbb;" horiz-adv-x="560" 
d="M510 224q0 -13 -2.5 -20.5t-5.5 -10.5t-14 -11l-207 -167l-21 18l157 189l-157 192l21 18q103 -87 209 -168q13 -10 16.5 -16.5t3.5 -23.5zM301 224q0 -13 -2.5 -20.5t-5.5 -10.5t-14 -11l-207 -167l-21 18l157 189l-157 192l21 18q103 -87 209 -168q13 -10 16.5 -16.5
t3.5 -23.5z" />
    <glyph glyph-name="onehalf" unicode="&#xbd;" horiz-adv-x="883" 
d="M871 30l-48 -125h-299v38q74 45 106.5 68t66.5 56q10 10 18 19t13.5 18.5t10 16t7 16t4 14t2 14t0.5 12.5v13.5v12.5q0 38 -20.5 58t-52.5 20q-34 0 -54 -14t-22 -37q1 -3 11.5 -15t10.5 -24q0 -14 -11.5 -27.5t-35.5 -13.5q-21 0 -31.5 14t-10.5 31q0 37 40.5 75.5
t115.5 38.5q63 0 104.5 -32t41.5 -81q0 -65 -41.5 -108.5t-166.5 -108.5l-20 -16h167q15 0 30.5 15.5t22 27l18.5 33.5zM796 602l-671 -714l-30 29l670 714zM337 220h-251v28q58 4 64 6q24 7 24 31v267q-13 -3 -36 -3q-27 0 -84 39l9 20q43 -17 77 -17q49 0 110 29h14
q-11 -53 -11 -104v-227q0 -24 23 -32q13 -5 61 -9v-28z" />
    <glyph glyph-name="questiondown" unicode="&#xbf;" horiz-adv-x="482" 
d="M374 629q0 -28 -19.5 -47.5t-47.5 -19.5t-47.5 19.5t-19.5 47.5t19.5 46.5t47.5 18.5t47.5 -18.5t19.5 -46.5zM449 102q0 -40 -46 -71t-121 -31q-102 0 -157 55.5t-55 144.5q0 83 61.5 140t155.5 69l3 96h38v-172q-34 -5 -59 -12.5t-51 -22.5t-40 -42t-14 -64
q0 -155 120 -155q50 0 67 21q0 1 -2.5 5.5t-3.5 8.5t-2.5 14t-1.5 24q0 23 19.5 36t37.5 13q25 0 38 -16t13 -41z" />
    <glyph glyph-name="Agrave" unicode="&#xc0;" horiz-adv-x="697" 
d="M721 0h-315v33q101 6 101 28q0 12 -4 23l-60 153h-245q-23 -56 -38 -105q-11 -35 -11 -56q0 -20 37 -30.5t76 -12.5v-33h-285v33q42 2 70 18q37 22 57 68l230 575h43l233 -595q12 -30 45 -49q27 -15 66 -17v-33zM426 280l-106 267l-105 -267h211zM406 737l-14 -12
l-148 114q-20 16 -28 27t-8 28q0 15 11.5 26.5t28.5 11.5q36 0 61 -43q49 -82 97 -152z" />
    <glyph glyph-name="Aacute" unicode="&#xc1;" horiz-adv-x="697" 
d="M721 0h-315v33q101 6 101 28q0 12 -4 23l-60 153h-245q-23 -56 -38 -105q-11 -35 -11 -56q0 -20 37 -30.5t76 -12.5v-33h-285v33q42 2 70 18q37 22 57 68l230 575h43l233 -595q12 -30 45 -49q27 -15 66 -17v-33zM426 280l-106 267l-105 -267h211zM500 894q0 -17 -8 -28
t-28 -27l-148 -114l-14 12q48 70 97 152q25 43 61 43q17 0 28.5 -11.5t11.5 -26.5z" />
    <glyph glyph-name="Acircumflex" unicode="&#xc2;" horiz-adv-x="697" 
d="M721 0h-315v33q101 6 101 28q0 12 -4 23l-60 153h-245q-23 -56 -38 -105q-11 -35 -11 -56q0 -20 37 -30.5t76 -12.5v-33h-285v33q42 2 70 18q37 22 57 68l230 575h43l233 -595q12 -30 45 -49q27 -15 66 -17v-33zM426 280l-106 267l-105 -267h211zM513 711l-19 -12
l-141 134l-139 -134l-19 12l116 171q10 15 16.5 18.5t27.5 3.5t26.5 -3t14.5 -17z" />
    <glyph glyph-name="Atilde" unicode="&#xc3;" horiz-adv-x="697" 
d="M721 0h-315v33q101 6 101 28q0 12 -4 23l-60 153h-245q-23 -56 -38 -105q-11 -35 -11 -56q0 -20 37 -30.5t76 -12.5v-33h-285v33q42 2 70 18q37 22 57 68l230 575h43l233 -595q12 -30 45 -49q27 -15 66 -17v-33zM426 280l-106 267l-105 -267h211zM559 871
q-12 -43 -48 -84t-80 -41t-90 27t-71 27q-8 0 -14.5 -1.5t-11.5 -3t-10 -6l-8 -7t-8.5 -10.5t-7.5 -11.5l-8 -14.5t-9 -16l-23 10q16 45 49 85t76 40q42 0 88.5 -27t67.5 -27q15 0 26.5 3t18 5t13.5 11.5t9 12.5t8.5 18t8.5 19z" />
    <glyph glyph-name="Adieresis" unicode="&#xc4;" horiz-adv-x="697" 
d="M721 0h-315v33q101 6 101 28q0 12 -4 23l-60 153h-245q-23 -56 -38 -105q-11 -35 -11 -56q0 -20 37 -30.5t76 -12.5v-33h-285v33q42 2 70 18q37 22 57 68l230 575h43l233 -595q12 -30 45 -49q27 -15 66 -17v-33zM426 280l-106 267l-105 -267h211zM518 820q0 -25 -17 -43
t-42 -18q-24 0 -41 17t-17 40q0 24 17 41.5t41 17.5q25 0 42 -16.5t17 -38.5zM301 820q0 -25 -17.5 -43t-42.5 -18q-23 0 -40 17t-17 40q0 24 17 41.5t40 17.5q26 0 43 -16.5t17 -38.5z" />
    <glyph glyph-name="Aring" unicode="&#xc5;" horiz-adv-x="697" 
d="M721 0h-315v33q101 6 101 28q0 12 -4 23l-60 153h-245q-23 -56 -38 -105q-11 -35 -11 -56q0 -20 37 -30.5t76 -12.5v-33h-285v33q42 2 70 18q37 22 57 68l230 575h43l233 -595q12 -30 45 -49q27 -15 66 -17v-33zM426 280l-106 267l-105 -267h211zM461 829
q0 -43 -30.5 -71.5t-77.5 -28.5q-48 0 -78 27.5t-30 72.5q0 43 31.5 71.5t76.5 28.5q46 0 77 -28t31 -72zM412 829q0 31 -15.5 50.5t-43.5 19.5t-43.5 -19t-15.5 -51t15.5 -51t43.5 -19t43.5 19t15.5 51z" />
    <glyph glyph-name="AE" unicode="&#xc6;" horiz-adv-x="940" 
d="M916 202l-13 -202h-577v33q59 3 79 11q31 12 31 49v176h-225q-45 -78 -73 -137q-16 -32 -16 -49q0 -44 93 -50v-33h-275v33q40 2 74 19q35 18 65 67l298 520q-28 10 -77 12v32h562v-165h-37q-9 36 -43 78t-64 46q-32 4 -83 4h-93v-273h80q26 0 44.5 6t24 10.5t15.5 14.5
t19 37.5t12 49.5h37v-279h-37q-1 22 -11.5 52t-19.5 40q-29 31 -84 31h-80v-205q0 -60 21 -75.5t98 -15.5q117 0 139 23q21 21 46.5 67.5t34.5 72.5h35zM436 310v330h-13l-187 -330h200z" />
    <glyph glyph-name="Ccedilla" unicode="&#xc7;" horiz-adv-x="655" 
d="M642 173q-82 -187 -273 -187h-11v-41q132 0 132 -76q0 -106 -212 -106v36q84 0 108 9q32 12 32 43q0 17 -17 25.5t-33.5 10t-43.5 1.5v100q-130 15 -208 107.5t-78 237.5q0 155 100.5 259t251.5 104q40 0 84 -16t67 -38l30 51h41l4 -255h-34q-32 100 -83.5 159.5
t-139.5 59.5q-84 0 -142.5 -80t-58.5 -236q0 -129 70 -212t170 -83q85 0 131.5 36t79.5 107z" />
    <glyph glyph-name="Egrave" unicode="&#xc8;" horiz-adv-x="668" 
d="M644 202l-13 -202h-592v33q59 3 79 11q31 12 31 49v491q0 37 -31 49q-35 15 -79 17v33h551v-165h-37q-9 36 -43 78t-64 46q-32 4 -83 4h-108v-273h80q26 0 44.5 6t24 10.5t15.5 14.5t19 37.5t12 49.5h37v-279h-37q-1 22 -11.5 52t-19.5 40q-29 31 -84 31h-80v-205
q0 -60 21 -75.5t98 -15.5q110 0 140 14q9 4 14 9q21 21 46.5 67.5t34.5 72.5h35zM383 737l-14 -12l-148 114q-20 16 -28 27t-8 28q0 15 11.5 26.5t28.5 11.5q36 0 61 -43q49 -82 97 -152z" />
    <glyph glyph-name="Eacute" unicode="&#xc9;" horiz-adv-x="668" 
d="M644 202l-13 -202h-592v33q59 3 79 11q31 12 31 49v491q0 37 -31 49q-35 15 -79 17v33h551v-165h-37q-9 36 -43 78t-64 46q-32 4 -83 4h-108v-273h80q26 0 44.5 6t24 10.5t15.5 14.5t19 37.5t12 49.5h37v-279h-37q-1 22 -11.5 52t-19.5 40q-29 31 -84 31h-80v-205
q0 -60 21 -75.5t98 -15.5q110 0 140 14q9 4 14 9q21 21 46.5 67.5t34.5 72.5h35zM475 894q0 -17 -8 -28t-28 -27l-148 -114l-14 12q48 70 97 152q25 43 61 43q17 0 28.5 -11.5t11.5 -26.5z" />
    <glyph glyph-name="Ecircumflex" unicode="&#xca;" horiz-adv-x="668" 
d="M644 202l-13 -202h-592v33q59 3 79 11q31 12 31 49v491q0 37 -31 49q-35 15 -79 17v33h551v-165h-37q-9 36 -43 78t-64 46q-32 4 -83 4h-108v-273h80q26 0 44.5 6t24 10.5t15.5 14.5t19 37.5t12 49.5h37v-279h-37q-1 22 -11.5 52t-19.5 40q-29 31 -84 31h-80v-205
q0 -60 21 -75.5t98 -15.5q110 0 140 14q9 4 14 9q21 21 46.5 67.5t34.5 72.5h35zM499 741l-19 -12l-141 134l-139 -134l-19 12l116 171q10 15 16.5 18.5t27.5 3.5t26.5 -3t14.5 -17z" />
    <glyph glyph-name="Edieresis" unicode="&#xcb;" horiz-adv-x="668" 
d="M644 202l-13 -202h-592v33q59 3 79 11q31 12 31 49v491q0 37 -31 49q-35 15 -79 17v33h551v-165h-37q-9 36 -43 78t-64 46q-32 4 -83 4h-108v-273h80q26 0 44.5 6t24 10.5t15.5 14.5t19 37.5t12 49.5h37v-279h-37q-1 22 -11.5 52t-19.5 40q-29 31 -84 31h-80v-205
q0 -60 21 -75.5t98 -15.5q110 0 140 14q9 4 14 9q21 21 46.5 67.5t34.5 72.5h35zM505 820q0 -25 -17 -43t-42 -18q-24 0 -41 17t-17 40q0 24 17 41.5t41 17.5q25 0 42 -16.5t17 -38.5zM288 820q0 -25 -17.5 -43t-42.5 -18q-23 0 -40 17t-17 40q0 24 17 41.5t40 17.5
q26 0 43 -16.5t17 -38.5z" />
    <glyph glyph-name="Igrave" unicode="&#xcc;" horiz-adv-x="408" 
d="M361 0h-314v33q58 3 73 9q31 12 31 48v495q0 36 -31 48q-39 15 -73 17v33h314v-33q-44 -2 -73 -12q-31 -10 -31 -48v-495q0 -35 31 -48q28 -11 73 -14v-33zM245 737l-14 -12l-148 114q-20 16 -28 27t-8 28q0 15 11.5 26.5t28.5 11.5q36 0 61 -43q49 -82 97 -152z" />
    <glyph glyph-name="Iacute" unicode="&#xcd;" horiz-adv-x="408" 
d="M361 0h-314v33q58 3 73 9q31 12 31 48v495q0 36 -31 48q-39 15 -73 17v33h314v-33q-44 -2 -73 -12q-31 -10 -31 -48v-495q0 -35 31 -48q28 -11 73 -14v-33zM363 894q0 -17 -8 -28t-28 -27l-148 -114l-14 12q48 70 97 152q25 43 61 43q17 0 28.5 -11.5t11.5 -26.5z" />
    <glyph glyph-name="Icircumflex" unicode="&#xce;" horiz-adv-x="408" 
d="M361 0h-314v33q58 3 73 9q31 12 31 48v495q0 36 -31 48q-39 15 -73 17v33h314v-33q-44 -2 -73 -12q-31 -10 -31 -48v-495q0 -35 31 -48q28 -11 73 -14v-33zM362 741l-19 -12l-141 134l-139 -134l-19 12l116 171q10 15 16.5 18.5t27.5 3.5t26.5 -3t14.5 -17z" />
    <glyph glyph-name="Idieresis" unicode="&#xcf;" horiz-adv-x="408" 
d="M361 0h-314v33q58 3 73 9q31 12 31 48v495q0 36 -31 48q-39 15 -73 17v33h314v-33q-44 -2 -73 -12q-31 -10 -31 -48v-495q0 -35 31 -48q28 -11 73 -14v-33zM371 820q0 -25 -17 -43t-42 -18q-24 0 -41 17t-17 40q0 24 17 41.5t41 17.5q25 0 42 -16.5t17 -38.5zM154 820
q0 -25 -17.5 -43t-42.5 -18q-23 0 -40 17t-17 40q0 24 17 41.5t40 17.5q26 0 43 -16.5t17 -38.5z" />
    <glyph glyph-name="Eth" unicode="&#xd0;" horiz-adv-x="781" 
d="M743 337q0 -84 -34 -150.5t-90.5 -106t-125 -60t-143.5 -20.5h-306v33q51 0 74 9q31 12 31 49v244h-101v42h101v207q0 38 -31 51t-70 15v33h322q45 0 91.5 -9.5t98.5 -34t91.5 -62t65.5 -100t26 -140.5zM620 338q0 137 -76.5 222t-201.5 85q-43 0 -87 -2v-266h138v-42
h-138v-219q5 -39 29.5 -58t79.5 -19q128 0 192 79.5t64 219.5z" />
    <glyph glyph-name="Ntilde" unicode="&#xd1;" horiz-adv-x="798" 
d="M802 650q-15 -1 -48 -9t-44 -15q-19 -12 -26 -43.5t-7 -90.5v-499h-42l-443 558v-350q0 -109 34 -137q12 -9 49 -19.5t54 -11.5v-33h-310v33q14 1 49.5 10.5t43.5 15.5q33 23 33 137v332q0 53 -32 79q-18 14 -52.5 28t-54.5 15v33h211l413 -520v323q0 113 -34 135
q-14 9 -49 18.5t-53 10.5v33h308v-33zM609 881q-12 -43 -48 -84t-80 -41t-90 27t-71 27q-8 0 -14.5 -1.5t-11.5 -3t-10 -6l-8 -7t-8.5 -10.5t-7.5 -11.5l-8 -14.5t-9 -16l-23 10q16 45 49 85t76 40q42 0 88.5 -27t67.5 -27q15 0 26.5 3t18 5t13.5 11.5t9 12.5t8.5 18t8.5 19
z" />
    <glyph glyph-name="Ograve" unicode="&#xd2;" horiz-adv-x="777" 
d="M738 346q0 -165 -104 -266q-104 -96 -249 -96q-139 0 -239 94q-107 101 -107 256q0 164 97 261q102 104 253 104q147 0 254 -104q45 -45 70 -110.5t25 -138.5zM617 343q0 62 -12.5 116t-38.5 99.5t-71.5 72t-105.5 26.5q-107 0 -168 -84t-61 -234q0 -137 58.5 -225
t170.5 -88t170 87.5t58 229.5zM443 737l-14 -12l-148 114q-20 16 -28 27t-8 28q0 15 11.5 26.5t28.5 11.5q36 0 61 -43q49 -82 97 -152z" />
    <glyph glyph-name="Oacute" unicode="&#xd3;" horiz-adv-x="777" 
d="M738 346q0 -165 -104 -266q-104 -96 -249 -96q-139 0 -239 94q-107 101 -107 256q0 164 97 261q102 104 253 104q147 0 254 -104q45 -45 70 -110.5t25 -138.5zM617 343q0 62 -12.5 116t-38.5 99.5t-71.5 72t-105.5 26.5q-107 0 -168 -84t-61 -234q0 -137 58.5 -225
t170.5 -88t170 87.5t58 229.5zM515 894q0 -17 -8 -28t-28 -27l-148 -114l-14 12q48 70 97 152q25 43 61 43q17 0 28.5 -11.5t11.5 -26.5z" />
    <glyph glyph-name="Ocircumflex" unicode="&#xd4;" horiz-adv-x="777" 
d="M738 346q0 -165 -104 -266q-104 -96 -249 -96q-139 0 -239 94q-107 101 -107 256q0 164 97 261q102 104 253 104q147 0 254 -104q45 -45 70 -110.5t25 -138.5zM617 343q0 62 -12.5 116t-38.5 99.5t-71.5 72t-105.5 26.5q-107 0 -168 -84t-61 -234q0 -137 58.5 -225
t170.5 -88t170 87.5t58 229.5zM542 741l-19 -12l-141 134l-139 -134l-19 12l116 171q10 15 16.5 18.5t27.5 3.5t26.5 -3t14.5 -17z" />
    <glyph glyph-name="Otilde" unicode="&#xd5;" horiz-adv-x="777" 
d="M738 346q0 -165 -104 -266q-104 -96 -249 -96q-139 0 -239 94q-107 101 -107 256q0 164 97 261q102 104 253 104q147 0 254 -104q45 -45 70 -110.5t25 -138.5zM617 343q0 62 -12.5 116t-38.5 99.5t-71.5 72t-105.5 26.5q-107 0 -168 -84t-61 -234q0 -137 58.5 -225
t170.5 -88t170 87.5t58 229.5zM583 886q-12 -43 -48 -84t-80 -41t-90 27t-71 27q-8 0 -14.5 -1.5t-11.5 -3t-10 -6l-8 -7t-8.5 -10.5t-7.5 -11.5l-8 -14.5t-9 -16l-23 10q16 45 49 85t76 40q42 0 88.5 -27t67.5 -27q15 0 26.5 3t18 5t13.5 11.5t9 12.5t8.5 18t8.5 19z" />
    <glyph glyph-name="Odieresis" unicode="&#xd6;" horiz-adv-x="777" 
d="M738 346q0 -165 -104 -266q-104 -96 -249 -96q-139 0 -239 94q-107 101 -107 256q0 164 97 261q102 104 253 104q147 0 254 -104q45 -45 70 -110.5t25 -138.5zM617 343q0 62 -12.5 116t-38.5 99.5t-71.5 72t-105.5 26.5q-107 0 -168 -84t-61 -234q0 -137 58.5 -225
t170.5 -88t170 87.5t58 229.5zM551 820q0 -25 -17 -43t-42 -18q-24 0 -41 17t-17 40q0 24 17 41.5t41 17.5q25 0 42 -16.5t17 -38.5zM334 820q0 -25 -17.5 -43t-42.5 -18q-23 0 -40 17t-17 40q0 24 17 41.5t40 17.5q26 0 43 -16.5t17 -38.5z" />
    <glyph glyph-name="Oslash" unicode="&#xd8;" horiz-adv-x="777" 
d="M738 346q0 -165 -104 -266q-104 -96 -249 -96q-123 0 -218 75l-90 -102l-33 27l92 104q-97 99 -97 246q0 164 97 261q102 104 253 104q125 0 220 -74l90 102l34 -28l-91 -103q96 -98 96 -250zM560 568q-59 89 -171 89q-107 0 -168.5 -84t-61.5 -234q0 -111 35 -187z
M618 343q0 109 -35 188l-367 -415q61 -90 173 -90t170.5 87.5t58.5 229.5z" />
    <glyph glyph-name="Ugrave" unicode="&#xd9;" horiz-adv-x="798" 
d="M789 650q-18 -1 -48 -7.5t-44 -15.5q-33 -21 -33 -133v-294q0 -58 -25.5 -102t-66 -67.5t-83.5 -35t-85 -11.5q-126 0 -197 57t-71 139v404q0 34 -31 50q-27 13 -70 16v33h311v-33q-43 -2 -72 -12q-31 -10 -31 -49v-379q0 -24 3.5 -45.5t15.5 -46t31 -41.5t52.5 -28.5
t78.5 -11.5q56 0 96.5 17.5t60 46t27.5 56t8 57.5v274q0 112 -34 134q-17 11 -49.5 19t-52.5 9v33h309v-33zM458 737l-14 -12l-148 114q-20 16 -28 27t-8 28q0 15 11.5 26.5t28.5 11.5q36 0 61 -43q49 -82 97 -152z" />
    <glyph glyph-name="Uacute" unicode="&#xda;" horiz-adv-x="798" 
d="M789 650q-18 -1 -48 -7.5t-44 -15.5q-33 -21 -33 -133v-294q0 -58 -25.5 -102t-66 -67.5t-83.5 -35t-85 -11.5q-126 0 -197 57t-71 139v404q0 34 -31 50q-27 13 -70 16v33h311v-33q-43 -2 -72 -12q-31 -10 -31 -49v-379q0 -24 3.5 -45.5t15.5 -46t31 -41.5t52.5 -28.5
t78.5 -11.5q56 0 96.5 17.5t60 46t27.5 56t8 57.5v274q0 112 -34 134q-17 11 -49.5 19t-52.5 9v33h309v-33zM555 894q0 -17 -8 -28t-28 -27l-148 -114l-14 12q48 70 97 152q25 43 61 43q17 0 28.5 -11.5t11.5 -26.5z" />
    <glyph glyph-name="Ucircumflex" unicode="&#xdb;" horiz-adv-x="798" 
d="M789 650q-18 -1 -48 -7.5t-44 -15.5q-33 -21 -33 -133v-294q0 -58 -25.5 -102t-66 -67.5t-83.5 -35t-85 -11.5q-126 0 -197 57t-71 139v404q0 34 -31 50q-27 13 -70 16v33h311v-33q-43 -2 -72 -12q-31 -10 -31 -49v-379q0 -24 3.5 -45.5t15.5 -46t31 -41.5t52.5 -28.5
t78.5 -11.5q56 0 96.5 17.5t60 46t27.5 56t8 57.5v274q0 112 -34 134q-17 11 -49.5 19t-52.5 9v33h309v-33zM574 741l-19 -12l-141 134l-139 -134l-19 12l116 171q10 15 16.5 18.5t27.5 3.5t26.5 -3t14.5 -17z" />
    <glyph glyph-name="Udieresis" unicode="&#xdc;" horiz-adv-x="798" 
d="M789 650q-18 -1 -48 -7.5t-44 -15.5q-33 -21 -33 -133v-294q0 -58 -25.5 -102t-66 -67.5t-83.5 -35t-85 -11.5q-126 0 -197 57t-71 139v404q0 34 -31 50q-27 13 -70 16v33h311v-33q-43 -2 -72 -12q-31 -10 -31 -49v-379q0 -24 3.5 -45.5t15.5 -46t31 -41.5t52.5 -28.5
t78.5 -11.5q56 0 96.5 17.5t60 46t27.5 56t8 57.5v274q0 112 -34 134q-17 11 -49.5 19t-52.5 9v33h309v-33zM582 820q0 -25 -17 -43t-42 -18q-24 0 -41 17t-17 40q0 24 17 41.5t41 17.5q25 0 42 -16.5t17 -38.5zM365 820q0 -25 -17.5 -43t-42.5 -18q-23 0 -40 17t-17 40
q0 24 17 41.5t40 17.5q26 0 43 -16.5t17 -38.5z" />
    <glyph glyph-name="Yacute" unicode="&#xdd;" horiz-adv-x="627" 
d="M661 650q-32 -3 -58 -19q-21 -12 -30 -20t-28 -31q-53 -67 -152 -246q-35 -63 -35 -112v-123q0 -37 31 -50q32 -13 82 -16v-33h-332v33q62 3 82 11q31 12 31 50v164q0 23 -26 75q-56 110 -127 233q-26 45 -66 68q-25 14 -64 16v33h322v-33q-4 0 -16.5 -0.5t-19.5 -1
t-18.5 -1.5t-18 -3t-14 -4t-11 -5.5t-3.5 -8.5q0 -18 153 -290q160 251 160 277q0 20 -27 27t-75 10v33h260v-33zM498 894q0 -17 -8 -28t-28 -27l-148 -114l-14 12q48 70 97 152q25 43 61 43q17 0 28.5 -11.5t11.5 -26.5z" />
    <glyph glyph-name="Thorn" unicode="&#xde;" horiz-adv-x="633" 
d="M591 374q0 -102 -76 -156.5t-182 -54.5h-78v-70q0 -38 31 -50q20 -8 79 -10v-33h-319v33q54 3 72 10q31 12 31 50v492q0 36 -31 48q-39 15 -73 17v33h314v-33q-44 -2 -73 -12q-31 -10 -31 -48v-52h122q91 0 152.5 -44.5t61.5 -119.5zM467 349q0 65 -33 108t-111 43h-68
v-297h49q51 0 86 15.5t50 40.5t21 46.5t6 43.5z" />
    <glyph glyph-name="germandbls" unicode="&#xdf;" horiz-adv-x="588" 
d="M562 139q0 -61 -45 -107t-109 -46q-70 0 -106 29.5t-36 73.5q0 27 15.5 43t40.5 16q20 0 32.5 -13t12.5 -31q0 -12 -8.5 -27t-8.5 -24q0 -36 64 -36q36 0 58.5 20.5t22.5 57.5q0 34 -18.5 60t-79.5 74q-46 36 -71 68t-25 69q0 27 11 47.5t26.5 35.5l31.5 31.5t27 44.5
t11 66q0 61 -27 92t-70 31q-108 0 -113 -203q0 -7 -0.5 -24.5t-0.5 -26.5v-460h-166v31q34 2 48 6q27 9 27 46v333h-84v44h84v21q0 133 68 205q57 61 147 61q67 0 114.5 -36t47.5 -97q0 -46 -18 -80.5t-39 -49.5t-39 -31.5t-18 -30.5q0 -17 4 -29t25.5 -36t63.5 -58
q58 -47 79 -77.5t21 -82.5z" />
    <glyph glyph-name="agrave" unicode="&#xe0;" horiz-adv-x="498" 
d="M507 119q-7 -129 -110 -129q-65 0 -88 67h-3q-59 -69 -151 -69q-52 0 -84 30.5t-32 79.5q0 58 26 88t72 47q12 5 79 28t92 36v45q0 11 -2.5 24t-9.5 32t-26.5 31.5t-48.5 12.5q-43 0 -65 -24q0 -7 4.5 -28.5t4.5 -33.5q0 -17 -16 -30.5t-42 -13.5q-23 0 -34 15.5
t-11 38.5q0 44 52.5 76.5t112.5 32.5q86 0 129.5 -30t43.5 -122q0 -52 -2.5 -136.5t-2.5 -93.5q0 -14 11 -31.5t33 -17.5q34 0 36 75h32zM309 257q-43 -13 -70 -24t-53 -27.5t-38 -39t-12 -51.5q0 -75 69 -75q35 0 56.5 13t43.5 38zM304 546l-14 -12l-148 114q-20 16 -28 27
t-8 28q0 15 11.5 26.5t28.5 11.5q36 0 61 -43q49 -82 97 -152z" />
    <glyph glyph-name="aacute" unicode="&#xe1;" horiz-adv-x="498" 
d="M507 119q-7 -129 -110 -129q-65 0 -88 67h-3q-59 -69 -151 -69q-52 0 -84 30.5t-32 79.5q0 58 26 88t72 47q12 5 79 28t92 36v45q0 11 -2.5 24t-9.5 32t-26.5 31.5t-48.5 12.5q-43 0 -65 -24q0 -7 4.5 -28.5t4.5 -33.5q0 -17 -16 -30.5t-42 -13.5q-23 0 -34 15.5
t-11 38.5q0 44 52.5 76.5t112.5 32.5q86 0 129.5 -30t43.5 -122q0 -52 -2.5 -136.5t-2.5 -93.5q0 -14 11 -31.5t33 -17.5q34 0 36 75h32zM309 257q-43 -13 -70 -24t-53 -27.5t-38 -39t-12 -51.5q0 -75 69 -75q35 0 56.5 13t43.5 38zM363 703q0 -17 -8 -28t-28 -27l-148 -114
l-14 12q48 70 97 152q25 43 61 43q17 0 28.5 -11.5t11.5 -26.5z" />
    <glyph glyph-name="acircumflex" unicode="&#xe2;" horiz-adv-x="498" 
d="M507 119q-7 -129 -110 -129q-65 0 -88 67h-3q-59 -69 -151 -69q-52 0 -84 30.5t-32 79.5q0 58 26 88t72 47q12 5 79 28t92 36v45q0 11 -2.5 24t-9.5 32t-26.5 31.5t-48.5 12.5q-43 0 -65 -24q0 -7 4.5 -28.5t4.5 -33.5q0 -17 -16 -30.5t-42 -13.5q-23 0 -34 15.5
t-11 38.5q0 44 52.5 76.5t112.5 32.5q86 0 129.5 -30t43.5 -122q0 -52 -2.5 -136.5t-2.5 -93.5q0 -14 11 -31.5t33 -17.5q34 0 36 75h32zM309 257q-43 -13 -70 -24t-53 -27.5t-38 -39t-12 -51.5q0 -75 69 -75q35 0 56.5 13t43.5 38zM392 550l-19 -12l-141 134l-139 -134
l-19 12l116 171q10 15 16.5 18.5t27.5 3.5t26.5 -3t14.5 -17z" />
    <glyph glyph-name="atilde" unicode="&#xe3;" horiz-adv-x="498" 
d="M507 119q-7 -129 -110 -129q-65 0 -88 67h-3q-59 -69 -151 -69q-52 0 -84 30.5t-32 79.5q0 58 26 88t72 47q12 5 79 28t92 36v45q0 11 -2.5 24t-9.5 32t-26.5 31.5t-48.5 12.5q-43 0 -65 -24q0 -7 4.5 -28.5t4.5 -33.5q0 -17 -16 -30.5t-42 -13.5q-23 0 -34 15.5
t-11 38.5q0 44 52.5 76.5t112.5 32.5q86 0 129.5 -30t43.5 -122q0 -52 -2.5 -136.5t-2.5 -93.5q0 -14 11 -31.5t33 -17.5q34 0 36 75h32zM309 257q-43 -13 -70 -24t-53 -27.5t-38 -39t-12 -51.5q0 -75 69 -75q35 0 56.5 13t43.5 38zM437 700q-12 -43 -48 -84t-80 -41t-90 27
t-71 27q-8 0 -14.5 -1.5t-11.5 -3t-10 -6l-8 -7t-8.5 -10.5t-7.5 -11.5l-8 -14.5t-9 -16l-23 10q16 45 49 85t76 40q42 0 88.5 -27t67.5 -27q15 0 26.5 3t18 5t13.5 11.5t9 12.5t8.5 18t8.5 19z" />
    <glyph glyph-name="adieresis" unicode="&#xe4;" horiz-adv-x="498" 
d="M507 119q-7 -129 -110 -129q-65 0 -88 67h-3q-59 -69 -151 -69q-52 0 -84 30.5t-32 79.5q0 58 26 88t72 47q12 5 79 28t92 36v45q0 11 -2.5 24t-9.5 32t-26.5 31.5t-48.5 12.5q-43 0 -65 -24q0 -7 4.5 -28.5t4.5 -33.5q0 -17 -16 -30.5t-42 -13.5q-23 0 -34 15.5
t-11 38.5q0 44 52.5 76.5t112.5 32.5q86 0 129.5 -30t43.5 -122q0 -52 -2.5 -136.5t-2.5 -93.5q0 -14 11 -31.5t33 -17.5q34 0 36 75h32zM309 257q-43 -13 -70 -24t-53 -27.5t-38 -39t-12 -51.5q0 -75 69 -75q35 0 56.5 13t43.5 38zM404 659q0 -25 -17 -43t-42 -18
q-24 0 -41 17t-17 40q0 24 17 41.5t41 17.5q25 0 42 -16.5t17 -38.5zM187 659q0 -25 -17.5 -43t-42.5 -18q-23 0 -40 17t-17 40q0 24 17 41.5t40 17.5q26 0 43 -16.5t17 -38.5z" />
    <glyph glyph-name="aring" unicode="&#xe5;" horiz-adv-x="498" 
d="M507 119q-7 -129 -110 -129q-65 0 -88 67h-3q-59 -69 -151 -69q-52 0 -84 30.5t-32 79.5q0 58 26 88t72 47q12 5 79 28t92 36v45q0 11 -2.5 24t-9.5 32t-26.5 31.5t-48.5 12.5q-43 0 -65 -24q0 -7 4.5 -28.5t4.5 -33.5q0 -17 -16 -30.5t-42 -13.5q-23 0 -34 15.5
t-11 38.5q0 44 52.5 76.5t112.5 32.5q86 0 129.5 -30t43.5 -122q0 -52 -2.5 -136.5t-2.5 -93.5q0 -14 11 -31.5t33 -17.5q34 0 36 75h32zM309 257q-43 -13 -70 -24t-53 -27.5t-38 -39t-12 -51.5q0 -75 69 -75q35 0 56.5 13t43.5 38zM340 638q0 -43 -30.5 -71.5t-77.5 -28.5
q-48 0 -78 27.5t-30 72.5q0 43 31.5 71.5t76.5 28.5q46 0 77 -28t31 -72zM291 638q0 31 -15.5 50.5t-43.5 19.5t-43.5 -19t-15.5 -51t15.5 -51t43.5 -19t43.5 19t15.5 51z" />
    <glyph glyph-name="ae" unicode="&#xe6;" horiz-adv-x="720" 
d="M701 107q-27 -55 -75.5 -87t-109.5 -32q-118 0 -177 94h-3q-68 -94 -180 -94q-53 0 -86 29t-33 77q0 56 26.5 84t74.5 45l57.5 19.5t65 22.5t46.5 21v56q0 12 -2.5 24.5t-9.5 32t-26.5 32t-48.5 12.5q-39 0 -65 -32q0 -7 4.5 -27t4.5 -32q0 -17 -16 -30t-42 -13
q-23 0 -34 15t-11 37q0 43 52.5 73.5t112.5 30.5q110 0 151 -53q60 53 131 53q96 0 141 -55.5t45 -139.5v-7h-297v-16q0 -100 36.5 -157.5t110.5 -57.5q56 0 81.5 18t57.5 69zM593 287q0 155 -86 155q-92 0 -110 -157zM308 86v171q-45 -14 -70.5 -24.5t-52.5 -27.5
t-39 -40.5t-12 -55.5q0 -81 71 -81q36 0 58 14.5t45 43.5z" />
    <glyph glyph-name="ccedilla" unicode="&#xe7;" horiz-adv-x="450" 
d="M449 107q-30 -52 -81.5 -85.5t-110.5 -33.5q-14 0 -21 1v-44q132 0 132 -76q0 -106 -212 -106v36q84 0 108 9q32 12 32 43q0 17 -17 25.5t-33.5 10t-43.5 1.5v105q-82 17 -125 81.5t-43 158.5q0 98 64 170t165 72q76 0 118 -34t42 -84q0 -64 -56 -64q-20 0 -38 12t-18 38
q0 24 7 39t7 22q-6 37 -64 37q-52 0 -89 -50t-37 -154q0 -86 40 -142t106 -56q46 0 77.5 21t59.5 67z" />
    <glyph glyph-name="egrave" unicode="&#xe8;" horiz-adv-x="472" 
d="M452 109q-28 -55 -78.5 -88t-113.5 -33q-110 0 -168 69.5t-58 177.5q0 97 59.5 168.5t156.5 71.5q98 0 144.5 -55t46.5 -141v-26h-309q0 -214 156 -214q48 0 76.5 21t56.5 68zM345 290q0 151 -96 151q-49 0 -82 -42t-35 -111zM315 546l-14 -12l-148 114q-20 16 -28 27
t-8 28q0 15 11.5 26.5t28.5 11.5q36 0 61 -43q49 -82 97 -152z" />
    <glyph glyph-name="eacute" unicode="&#xe9;" horiz-adv-x="472" 
d="M452 109q-28 -55 -78.5 -88t-113.5 -33q-110 0 -168 69.5t-58 177.5q0 97 59.5 168.5t156.5 71.5q98 0 144.5 -55t46.5 -141v-26h-309q0 -214 156 -214q48 0 76.5 21t56.5 68zM345 290q0 151 -96 151q-49 0 -82 -42t-35 -111zM390 703q0 -17 -8 -28t-28 -27l-148 -114
l-14 12q48 70 97 152q25 43 61 43q17 0 28.5 -11.5t11.5 -26.5z" />
    <glyph glyph-name="ecircumflex" unicode="&#xea;" horiz-adv-x="472" 
d="M452 109q-28 -55 -78.5 -88t-113.5 -33q-110 0 -168 69.5t-58 177.5q0 97 59.5 168.5t156.5 71.5q98 0 144.5 -55t46.5 -141v-26h-309q0 -214 156 -214q48 0 76.5 21t56.5 68zM345 290q0 151 -96 151q-49 0 -82 -42t-35 -111zM407 550l-19 -12l-141 134l-139 -134l-19 12
l116 171q10 15 16.5 18.5t27.5 3.5t26.5 -3t14.5 -17z" />
    <glyph glyph-name="edieresis" unicode="&#xeb;" horiz-adv-x="472" 
d="M452 109q-28 -55 -78.5 -88t-113.5 -33q-110 0 -168 69.5t-58 177.5q0 97 59.5 168.5t156.5 71.5q98 0 144.5 -55t46.5 -141v-26h-309q0 -214 156 -214q48 0 76.5 21t56.5 68zM345 290q0 151 -96 151q-49 0 -82 -42t-35 -111zM419 659q0 -25 -17 -43t-42 -18
q-24 0 -41 17t-17 40q0 24 17 41.5t41 17.5q25 0 42 -16.5t17 -38.5zM202 659q0 -25 -17.5 -43t-42.5 -18q-23 0 -40 17t-17 40q0 24 17 41.5t40 17.5q26 0 43 -16.5t17 -38.5z" />
    <glyph glyph-name="igrave" unicode="&#xec;" horiz-adv-x="291" 
d="M268 0h-233v31q29 2 44 6q27 9 27 44v280q-3 34 -27 50q-21 14 -59 16v30l170 11l7 -7v-374q0 -35 27 -45q25 -10 44 -11v-31zM211 546l-14 -12l-148 114q-20 16 -28 27t-8 28q0 15 11.5 26.5t28.5 11.5q36 0 61 -43q49 -82 97 -152z" />
    <glyph glyph-name="iacute" unicode="&#xed;" horiz-adv-x="291" 
d="M268 0h-233v31q29 2 44 6q27 9 27 44v280q-3 34 -27 50q-21 14 -59 16v30l170 11l7 -7v-374q0 -35 27 -45q25 -10 44 -11v-31zM250 703q0 -17 -8 -28t-28 -27l-148 -114l-14 12q48 70 97 152q25 43 61 43q17 0 28.5 -11.5t11.5 -26.5z" />
    <glyph glyph-name="icircumflex" unicode="&#xee;" horiz-adv-x="291" 
d="M263 550l-19 -12l-116 139l-114 -139l-19 12q29 47 60 105.5t35 65.5q7 12 9.5 15t9 5t21.5 2h10.5t8 -1t5 -1t4 -3t3 -3.5t3 -5.5t3.5 -6q7 -12 37.5 -69t58.5 -104zM268 0h-233v31q29 2 44 6q27 9 27 44v280q-3 34 -27 50q-21 14 -59 16v30l170 11l7 -7v-374
q0 -35 27 -45q25 -10 44 -11v-31z" />
    <glyph glyph-name="idieresis" unicode="&#xef;" horiz-adv-x="291" 
d="M286 659q0 -25 -16.5 -42.5t-41.5 -17.5q-24 0 -40.5 16.5t-16.5 39.5q0 24 16.5 41.5t40.5 17.5q25 0 41.5 -16.5t16.5 -38.5zM99 659q0 -25 -17 -43t-42 -18q-23 0 -39.5 17t-16.5 40q0 24 16.5 41.5t39.5 17.5q26 0 42.5 -16.5t16.5 -38.5zM268 0h-233v31q29 2 44 6
q27 9 27 44v280q-3 34 -27 50q-21 14 -59 16v30l170 11l7 -7v-374q0 -35 27 -45q25 -10 44 -11v-31z" />
    <glyph glyph-name="eth" unicode="&#xf0;" horiz-adv-x="530" 
d="M494 295q0 -139 -61.5 -224t-173.5 -85q-92 0 -159 67t-67 182q0 107 62 173.5t160 66.5q43 0 78.5 -20t53.5 -48l4 1q-13 120 -80 216l-115 -70l-22 35l113 66q-31 38 -83 72l21 23q60 -30 104 -72l98 60l22 -35l-90 -53q135 -129 135 -355zM392 247q0 83 -33 138
t-94 55q-70 0 -100.5 -57t-30.5 -142q0 -104 32.5 -162.5t97.5 -58.5q45 0 74.5 34t41.5 83t12 110z" />
    <glyph glyph-name="ntilde" unicode="&#xf1;" horiz-adv-x="589" 
d="M566 0h-236v31q32 2 47 6q27 9 27 44v231q0 49 -24.5 78t-58.5 29q-48 0 -80.5 -23.5t-44.5 -47.5v-262q0 -32 27 -44q20 -9 47 -11v-31h-236v31q29 2 44 6q27 9 27 44v280q-4 37 -27 53q-17 11 -49 13v30l160 11l7 -7v-68h2l12 12t14 13.5t13.5 12t16 12.5t16 10t19 9.5
l20.5 6t24.5 5t26.5 1.5q68 0 102 -42t34 -116v-232q0 -32 26 -44q20 -9 44 -10v-31zM501 700q-12 -43 -48 -84t-80 -41t-90 27t-71 27q-8 0 -14.5 -1.5t-11.5 -3t-10 -6l-8 -7t-8.5 -10.5t-7.5 -11.5l-8 -14.5t-9 -16l-23 10q16 45 49 85t76 40q42 0 88.5 -27t67.5 -27
q15 0 26.5 3t18 5t13.5 11.5t9 12.5t8.5 18t8.5 19z" />
    <glyph glyph-name="ograve" unicode="&#xf2;" horiz-adv-x="528" 
d="M494 236q0 -107 -63 -178.5t-172 -71.5q-94 0 -160 67t-66 176t64 177.5t169 68.5q103 0 165.5 -67.5t62.5 -171.5zM393 235q0 87 -30.5 146.5t-97.5 59.5q-37 0 -64 -18.5t-41 -49.5t-20 -64.5t-6 -71.5q0 -95 32.5 -156t98.5 -61q63 0 95.5 60.5t32.5 154.5zM341 546
l-14 -12l-148 114q-20 16 -28 27t-8 28q0 15 11.5 26.5t28.5 11.5q36 0 61 -43q49 -82 97 -152z" />
    <glyph glyph-name="oacute" unicode="&#xf3;" horiz-adv-x="528" 
d="M494 236q0 -107 -63 -178.5t-172 -71.5q-94 0 -160 67t-66 176t64 177.5t169 68.5q103 0 165.5 -67.5t62.5 -171.5zM393 235q0 87 -30.5 146.5t-97.5 59.5q-37 0 -64 -18.5t-41 -49.5t-20 -64.5t-6 -71.5q0 -95 32.5 -156t98.5 -61q63 0 95.5 60.5t32.5 154.5zM375 703
q0 -17 -8 -28t-28 -27l-148 -114l-14 12q48 70 97 152q25 43 61 43q17 0 28.5 -11.5t11.5 -26.5z" />
    <glyph glyph-name="ocircumflex" unicode="&#xf4;" horiz-adv-x="528" 
d="M494 236q0 -107 -63 -178.5t-172 -71.5q-94 0 -160 67t-66 176t64 177.5t169 68.5q103 0 165.5 -67.5t62.5 -171.5zM393 235q0 87 -30.5 146.5t-97.5 59.5q-37 0 -64 -18.5t-41 -49.5t-20 -64.5t-6 -71.5q0 -95 32.5 -156t98.5 -61q63 0 95.5 60.5t32.5 154.5zM424 550
l-19 -12l-141 134l-139 -134l-19 12l116 171q10 15 16.5 18.5t27.5 3.5t26.5 -3t14.5 -17z" />
    <glyph glyph-name="otilde" unicode="&#xf5;" horiz-adv-x="528" 
d="M494 236q0 -107 -63 -178.5t-172 -71.5q-94 0 -160 67t-66 176t64 177.5t169 68.5q103 0 165.5 -67.5t62.5 -171.5zM393 235q0 87 -30.5 146.5t-97.5 59.5q-37 0 -64 -18.5t-41 -49.5t-20 -64.5t-6 -71.5q0 -95 32.5 -156t98.5 -61q63 0 95.5 60.5t32.5 154.5zM460 700
q-12 -43 -48 -84t-80 -41t-90 27t-71 27q-8 0 -14.5 -1.5t-11.5 -3t-10 -6l-8 -7t-8.5 -10.5t-7.5 -11.5l-8 -14.5t-9 -16l-23 10q16 45 49 85t76 40q42 0 88.5 -27t67.5 -27q15 0 26.5 3t18 5t13.5 11.5t9 12.5t8.5 18t8.5 19z" />
    <glyph glyph-name="odieresis" unicode="&#xf6;" horiz-adv-x="528" 
d="M494 236q0 -107 -63 -178.5t-172 -71.5q-94 0 -160 67t-66 176t64 177.5t169 68.5q103 0 165.5 -67.5t62.5 -171.5zM393 235q0 87 -30.5 146.5t-97.5 59.5q-37 0 -64 -18.5t-41 -49.5t-20 -64.5t-6 -71.5q0 -95 32.5 -156t98.5 -61q63 0 95.5 60.5t32.5 154.5zM432 659
q0 -25 -17 -43t-42 -18q-24 0 -41 17t-17 40q0 24 17 41.5t41 17.5q25 0 42 -16.5t17 -38.5zM215 659q0 -25 -17.5 -43t-42.5 -18q-23 0 -40 17t-17 40q0 24 17 41.5t40 17.5q26 0 43 -16.5t17 -38.5z" />
    <glyph glyph-name="oslash" unicode="&#xf8;" horiz-adv-x="528" 
d="M494 236q0 -107 -63 -178.5t-172 -71.5q-78 0 -136 46l-59 -70l-31 24l61 73q-61 69 -61 170q0 109 64 177.5t169 68.5q81 0 139 -44l57 69l32 -25l-59 -71q59 -65 59 -168zM364 381q-33 60 -99 60q-49 0 -80 -33t-41.5 -76t-10.5 -95q0 -63 14 -116zM394 235
q0 61 -13 107l-217 -259q36 -63 101 -63q64 0 96.5 60.5t32.5 154.5z" />
    <glyph glyph-name="ugrave" unicode="&#xf9;" horiz-adv-x="572" 
d="M549 9l-157 -11l-7 7v61h-3q-28 -28 -41 -39.5t-46 -25t-73 -13.5q-67 0 -98.5 44t-31.5 119v212q-3 34 -26 50q-17 11 -50 13v30l161 12l7 -7v-317q0 -50 22.5 -77.5t56.5 -27.5q78 0 121 69v258q-3 34 -26 50q-12 8 -65 10v30l175 12l7 -7v-364q3 -32 26 -48
q12 -8 48 -10v-30zM349 546l-14 -12l-148 114q-20 16 -28 27t-8 28q0 15 11.5 26.5t28.5 11.5q36 0 61 -43q49 -82 97 -152z" />
    <glyph glyph-name="uacute" unicode="&#xfa;" horiz-adv-x="572" 
d="M549 9l-157 -11l-7 7v61h-3q-28 -28 -41 -39.5t-46 -25t-73 -13.5q-67 0 -98.5 44t-31.5 119v212q-3 34 -26 50q-17 11 -50 13v30l161 12l7 -7v-317q0 -50 22.5 -77.5t56.5 -27.5q78 0 121 69v258q-3 34 -26 50q-12 8 -65 10v30l175 12l7 -7v-364q3 -32 26 -48
q12 -8 48 -10v-30zM412 703q0 -17 -8 -28t-28 -27l-148 -114l-14 12q48 70 97 152q25 43 61 43q17 0 28.5 -11.5t11.5 -26.5z" />
    <glyph glyph-name="ucircumflex" unicode="&#xfb;" horiz-adv-x="572" 
d="M549 9l-157 -11l-7 7v61h-3q-28 -28 -41 -39.5t-46 -25t-73 -13.5q-67 0 -98.5 44t-31.5 119v212q-3 34 -26 50q-17 11 -50 13v30l161 12l7 -7v-317q0 -50 22.5 -77.5t56.5 -27.5q78 0 121 69v258q-3 34 -26 50q-12 8 -65 10v30l175 12l7 -7v-364q3 -32 26 -48
q12 -8 48 -10v-30zM427 550l-19 -12l-141 134l-139 -134l-19 12l116 171q10 15 16.5 18.5t27.5 3.5t26.5 -3t14.5 -17z" />
    <glyph glyph-name="udieresis" unicode="&#xfc;" horiz-adv-x="572" 
d="M549 9l-157 -11l-7 7v61h-3q-28 -28 -41 -39.5t-46 -25t-73 -13.5q-67 0 -98.5 44t-31.5 119v212q-3 34 -26 50q-17 11 -50 13v30l161 12l7 -7v-317q0 -50 22.5 -77.5t56.5 -27.5q78 0 121 69v258q-3 34 -26 50q-12 8 -65 10v30l175 12l7 -7v-364q3 -32 26 -48
q12 -8 48 -10v-30zM439 659q0 -25 -17 -43t-42 -18q-24 0 -41 17t-17 40q0 24 17 41.5t41 17.5q25 0 42 -16.5t17 -38.5zM222 659q0 -25 -17.5 -43t-42.5 -18q-23 0 -40 17t-17 40q0 24 17 41.5t40 17.5q26 0 43 -16.5t17 -38.5z" />
    <glyph glyph-name="yacute" unicode="&#xfd;" horiz-adv-x="470" 
d="M488 433q-16 -3 -40 -19.5t-34 -36.5l-110 -263l-52 -129q-33 -74 -57.5 -118t-47.5 -63.5t-39 -24.5t-44 -5q-26 0 -50 17t-24 51q0 21 16 39.5t41 18.5q21 0 36.5 -11.5t15.5 -38.5v-25q27 6 57.5 49.5t47.5 84.5l16 41l-157 382q-18 41 -74 49v31h219v-33
q-54 -2 -54 -21q0 -4 7 -21q0 -1 107 -265h4l99 246q6 21 6 28q0 13 -23.5 23.5t-41.5 12.5v30h176v-29zM415 703q0 -17 -8 -28t-28 -27l-148 -114l-14 12q48 70 97 152q25 43 61 43q17 0 28.5 -11.5t11.5 -26.5z" />
    <glyph glyph-name="thorn" unicode="&#xfe;" horiz-adv-x="556" 
d="M521 229q0 -103 -68 -172.5t-159 -69.5q-72 0 -115 32h-4v-154q0 -35 28 -46q30 -12 69 -14v-31h-269v31q34 2 55 8q26 8 26 46v775q0 16 -7.5 33t-19.5 24q-17 11 -66 14v30l177 11l7 -7v-325l3 -1q57 62 135 62q88 0 148 -68t60 -178zM419 228q0 81 -34.5 138
t-105.5 57q-63 0 -104 -46v-279q10 -29 38.5 -53t72.5 -24q59 0 96 54.5t37 152.5z" />
    <glyph glyph-name="ydieresis" unicode="&#xff;" horiz-adv-x="470" 
d="M488 433q-16 -3 -40 -19.5t-34 -36.5l-110 -263l-52 -129q-33 -74 -57.5 -118t-47.5 -63.5t-39 -24.5t-44 -5q-26 0 -50 17t-24 51q0 21 16 39.5t41 18.5q21 0 36.5 -11.5t15.5 -38.5v-25q27 6 57.5 49.5t47.5 84.5l16 41l-157 382q-18 41 -74 49v31h219v-33
q-54 -2 -54 -21q0 -4 7 -21q0 -1 107 -265h4l99 246q6 21 6 28q0 13 -23.5 23.5t-41.5 12.5v30h176v-29zM414 659q0 -25 -17 -43t-42 -18q-24 0 -41 17t-17 40q0 24 17 41.5t41 17.5q25 0 42 -16.5t17 -38.5zM197 659q0 -25 -17.5 -43t-42.5 -18q-23 0 -40 17t-17 40
q0 24 17 41.5t40 17.5q26 0 43 -16.5t17 -38.5z" />
    <glyph glyph-name="dotlessi" unicode="&#x131;" horiz-adv-x="291" 
d="M268 0h-233v31q29 2 44 6q27 9 27 44v280q-3 34 -27 50q-21 14 -59 16v30l170 11l7 -7v-374q0 -35 27 -45q25 -10 44 -11v-31z" />
    <glyph glyph-name="Lslash" unicode="&#x141;" horiz-adv-x="631" 
d="M632 204l-15 -204h-571v33q54 3 72 10q31 12 31 50v197l-82 -29l-15 39l97 35v247q0 36 -31 50q-36 16 -72 18v33h313v-33q-41 -2 -73 -13q-31 -10 -31 -50v-213l159 58l15 -40l-174 -63v-200q0 -63 19 -77.5t100 -14.5q112 0 137 26q21 22 50.5 69.5t36.5 71.5h34z" />
    <glyph glyph-name="lslash" unicode="&#x142;" horiz-adv-x="304" 
d="M289 347l-91 -33v-227q0 -33 27 -45q21 -10 44 -11v-31h-233v31q29 2 44 6q27 9 27 44v200l-76 -27l-15 39l91 33v305q-4 41 -27 57q-21 14 -70 17v30l181 11l7 -7v-380l76 28z" />
    <glyph glyph-name="OE" unicode="&#x152;" horiz-adv-x="1023" 
d="M995 202l-13 -202h-426q-70 0 -200 -2q-132 0 -220 90q-98 100 -98 246q0 154 89 251q45 49 106.5 74.5t126.5 25.5q44 0 105 -1t91 -1h390v-165h-37q-9 36 -43 78t-64 46q-32 4 -83 4h-93v-273h62q26 0 44.5 6t24 10.5t15.5 14.5t19 37.5t12 49.5h37v-279h-37
q-1 22 -11.5 52t-19.5 40q-29 31 -84 31h-62v-205q0 -60 21 -75.5t98 -15.5q111 0 134 23q21 21 46.5 67.5t34.5 72.5h35zM532 343q0 112 -7.5 169.5t-34.5 90.5q-38 47 -120 47q-102 0 -157 -86t-55 -225q0 -60 12 -113t36 -97.5t66 -70.5t98 -26q75 0 115 40q47 47 47 271
z" />
    <glyph glyph-name="oe" unicode="&#x153;" horiz-adv-x="814" 
d="M794 109q-26 -53 -76.5 -87t-110.5 -34q-55 0 -102 21t-75 59q-66 -82 -172 -82q-93 0 -159 67t-66 176q0 106 62 176t170 70t174 -79q62 79 155 79q97 0 143 -54.5t46 -141.5v-26h-303q0 -214 150 -214q48 0 77.5 21.5t55.5 67.5zM687 290q0 151 -96 151q-49 0 -80 -45
t-31 -108zM383 230q0 211 -121 211q-36 0 -62.5 -18.5t-40 -49.5t-19.5 -64.5t-6 -71.5q0 -96 31.5 -156.5t96.5 -60.5q63 0 92 57t29 153z" />
    <glyph glyph-name="Scaron" unicode="&#x160;" horiz-adv-x="559" 
d="M521 195q0 -90 -66.5 -149t-164.5 -59q-106 0 -169 50l-35 -47h-34l-7 244h33q17 -45 35 -78t44.5 -64t62.5 -47.5t81 -16.5q123 0 123 120q0 41 -24.5 74.5t-68.5 51.5q-113 45 -143 59q-123 54 -123 178q0 79 59.5 132t145.5 53q38 0 80 -14.5t69 -35.5l34 47h34
l5 -237h-32q-18 49 -32.5 79.5t-38 61t-57 44.5t-78.5 14q-18 0 -39 -7t-40.5 -30.5t-19.5 -58.5q0 -42 20.5 -69.5t63.5 -51.5q27 -15 72 -32t64 -26q49 -22 77.5 -42t48.5 -56t20 -87zM439 923l-116 -171q-10 -15 -16.5 -18.5t-27.5 -3.5t-26.5 3t-14.5 17l-117 173l19 12
l141 -134l139 134z" />
    <glyph glyph-name="scaron" unicode="&#x161;" horiz-adv-x="410" 
d="M373 132q0 -66 -48.5 -106t-121.5 -40q-35 0 -70 13t-49 28l-10 -32h-34l-5 162h32q10 -47 48 -91.5t92 -44.5q94 0 94 80q0 38 -26 57.5t-90 38.5q-138 41 -138 144q0 58 41.5 96t110.5 38q67 0 104 -27l8 28h32l7 -145h-32q-8 47 -39 78t-81 31q-38 0 -58.5 -18
t-20.5 -47q0 -39 23.5 -55.5t92.5 -39.5q68 -22 103 -56t35 -92zM360 732l-116 -171q-10 -15 -16.5 -18.5t-27.5 -3.5t-26.5 3t-14.5 17l-117 173l19 12l141 -134l139 134z" />
    <glyph glyph-name="Ydieresis" unicode="&#x178;" horiz-adv-x="627" 
d="M661 650q-32 -3 -58 -19q-21 -12 -30 -20t-28 -31q-53 -67 -152 -246q-35 -63 -35 -112v-123q0 -37 31 -50q32 -13 82 -16v-33h-332v33q62 3 82 11q31 12 31 50v164q0 23 -26 75q-56 110 -127 233q-26 45 -66 68q-25 14 -64 16v33h322v-33q-4 0 -16.5 -0.5t-19.5 -1
t-18.5 -1.5t-18 -3t-14 -4t-11 -5.5t-3.5 -8.5q0 -18 153 -290q160 251 160 277q0 20 -27 27t-75 10v33h260v-33zM500 820q0 -25 -17 -43t-42 -18q-24 0 -41 17t-17 40q0 24 17 41.5t41 17.5q25 0 42 -16.5t17 -38.5zM283 820q0 -25 -17.5 -43t-42.5 -18q-23 0 -40 17
t-17 40q0 24 17 41.5t40 17.5q26 0 43 -16.5t17 -38.5z" />
    <glyph glyph-name="Zcaron" unicode="&#x17d;" horiz-adv-x="628" 
d="M619 215l-23 -215h-591v12l462 634h-170q-56 0 -81 -5q-37 -8 -77.5 -57.5t-58.5 -94.5h-34l21 194h539v-12l-462 -634h192q120 0 147 26q30 28 59 72.5t43 79.5h34zM483 923l-116 -171q-10 -15 -16.5 -18.5t-27.5 -3.5t-26.5 3t-14.5 17l-117 173l19 12l141 -134
l139 134z" />
    <glyph glyph-name="zcaron" unicode="&#x17e;" horiz-adv-x="442" 
d="M415 0h-389v25l272 401h-41h-45.5t-34.5 -1t-36.5 -3.5t-23.5 -6.5q-29 -11 -46 -93h-27v140h367v-19l-276 -407q33 -1 84 -1q35 0 99 3q30 1 45 39q13 33 26 84h26v-161zM382 732l-116 -171q-10 -15 -16.5 -18.5t-27.5 -3.5t-26.5 3t-14.5 17l-117 173l19 12l141 -134
l139 134z" />
    <glyph glyph-name="florin" unicode="&#x192;" horiz-adv-x="514" 
d="M522 536q0 -19 -13.5 -35t-37.5 -16q-23 0 -39.5 13t-16.5 36q0 21 9 48q-8 12 -22 12q-100 0 -133 -198l-10 -59h126l-9 -41h-124q-23 -146 -41 -229q-31 -139 -103 -202q-63 -58 -139 -58q-55 0 -81.5 25.5t-26.5 59.5q0 22 13.5 36.5t37.5 14.5t40 -15t16 -41
q0 -21 -15 -38q4 -13 18 -13q55 0 88 46t57 157q17 81 44 257h-106l8 41h105q14 82 38 136t66 96q56 55 137 55q49 0 81.5 -27.5t32.5 -60.5z" />
    <glyph glyph-name="circumflex" unicode="&#x2c6;" 
d="M409 550l-19 -12l-141 134l-139 -134l-19 12l116 171q10 15 16.5 18.5t27.5 3.5t26.5 -3t14.5 -17z" />
    <glyph glyph-name="caron" unicode="&#x2c7;" 
d="M409 732l-116 -171q-10 -15 -16.5 -18.5t-27.5 -3.5t-26.5 3t-14.5 17l-117 173l19 12l141 -134l139 134z" />
    <glyph glyph-name="breve" unicode="&#x2d8;" 
d="M404 720q-26 -96 -67 -138.5t-87 -42.5t-87 42.5t-67 138.5l19 6q51 -111 135 -111t135 111z" />
    <glyph glyph-name="dotaccent" unicode="&#x2d9;" 
d="M309 659q0 -25 -17 -43t-42 -18q-24 0 -41 17t-17 40q0 24 17 41.5t41 17.5q25 0 42 -16.5t17 -38.5z" />
    <glyph glyph-name="ring" unicode="&#x2da;" 
d="M358 638q0 -43 -30.5 -71.5t-77.5 -28.5q-48 0 -78 27.5t-30 72.5q0 43 31.5 71.5t76.5 28.5q46 0 77 -28t31 -72zM309 638q0 31 -15.5 50.5t-43.5 19.5t-43.5 -19t-15.5 -51t15.5 -51t43.5 -19t43.5 19t15.5 51z" />
    <glyph glyph-name="ogonek" unicode="&#x2db;" 
d="M339 -236q-192 0 -192 93q0 41 30 75t93 68h42q-86 -74 -86 -136q0 -32 24 -46t89 -19v-35z" />
    <glyph glyph-name="tilde" unicode="&#x2dc;" 
d="M444 700q-12 -43 -48 -84t-80 -41t-90 27t-71 27q-8 0 -14.5 -1.5t-11.5 -3t-10 -6l-8 -7t-8.5 -10.5t-7.5 -11.5l-8 -14.5t-9 -16l-23 10q16 45 49 85t76 40q42 0 88.5 -27t67.5 -27q15 0 26.5 3t18 5t13.5 11.5t9 12.5t8.5 18t8.5 19z" />
    <glyph glyph-name="hungarumlaut" unicode="&#x2dd;" 
d="M424 703q0 -17 -8 -27.5t-28 -27.5l-139 -114l-12 12q47 69 96 152q25 43 57 43q14 0 24 -11.5t10 -26.5zM243 703q0 -17 -8 -27.5t-28 -27.5l-139 -114l-12 12q47 69 96 152q25 43 57 43q15 0 24.5 -11.5t9.5 -26.5z" />
    <glyph glyph-name="endash" unicode="&#x2013;" horiz-adv-x="542" 
d="M492 240h-442v61h442v-61z" />
    <glyph glyph-name="emdash" unicode="&#x2014;" horiz-adv-x="930" 
d="M856 225h-782v61h782v-61z" />
    <glyph glyph-name="quoteleft" unicode="&#x2018;" horiz-adv-x="185" 
d="M165 711q-48 -28 -70.5 -52t-26.5 -68h25q34 0 49.5 -17t15.5 -42q0 -22 -16 -39t-42 -17q-78 0 -78 100q0 92 127 164z" />
    <glyph glyph-name="quoteright" unicode="&#x2019;" horiz-adv-x="185" 
d="M174 637q0 -91 -128 -164l-15 29q48 28 70.5 52t26.5 68h-25q-34 0 -49.5 17t-15.5 42q0 22 16 39t42 17q78 0 78 -100z" />
    <glyph glyph-name="quotesinglbase" unicode="&#x201a;" horiz-adv-x="185" 
d="M174 17q0 -91 -128 -164l-15 29q48 28 70.5 52t26.5 68h-25q-34 0 -49.5 17t-15.5 42q0 22 16 39t42 17q78 0 78 -100z" />
    <glyph glyph-name="quotedblleft" unicode="&#x201c;" horiz-adv-x="354" 
d="M333 711q-47 -27 -70 -53t-27 -70h25q62 0 62 -56q0 -22 -15.5 -39t-41.5 -17q-75 0 -75 100q0 90 128 163zM164 711q-47 -27 -70 -53t-27 -70h25q62 0 62 -56q0 -22 -15.5 -39t-41.5 -17q-75 0 -75 100q0 90 128 163z" />
    <glyph glyph-name="quotedblright" unicode="&#x201d;" horiz-adv-x="354" 
d="M342 637q0 -30 -13 -57t-37 -47.5t-40 -31.5t-40 -25l-14 28q32 19 49 31.5t32 36t18 53.5h-25q-62 0 -62 56q0 22 15.5 39t41.5 17q75 0 75 -100zM173 637q0 -30 -13 -57t-37 -47.5t-40 -31.5t-40 -25l-14 28q32 19 49 31.5t32 36t18 53.5h-25q-62 0 -62 56
q0 22 15.5 39t41.5 17q75 0 75 -100z" />
    <glyph glyph-name="quotedblbase" unicode="&#x201e;" horiz-adv-x="354" 
d="M342 14q0 -30 -13 -57t-37 -47.5t-40 -31.5t-40 -25l-14 28q32 19 49 31.5t32 36t18 53.5h-25q-62 0 -62 56q0 22 15.5 39t41.5 17q75 0 75 -100zM173 14q0 -30 -13 -57t-37 -47.5t-40 -31.5t-40 -25l-14 28q32 19 49 31.5t32 36t18 53.5h-25q-62 0 -62 56q0 22 15.5 39
t41.5 17q75 0 75 -100z" />
    <glyph glyph-name="dagger" unicode="&#x2020;" horiz-adv-x="492" 
d="M464 458q0 -24 -17 -39.5t-41 -15.5q-21 0 -54 28t-47 28t-20.5 -9t-7.5 -33q-13 -217 -19 -495h-24q-6 279 -19 495q-1 24 -7.5 33t-20.5 9t-47 -28t-54 -28q-24 0 -41 15.5t-17 39.5q0 15 10.5 27t25.5 12q16 0 27.5 -11t14.5 -30q9 0 36 14.5t41 14.5q31 0 51 -23
q-2 34 -17 106.5t-15 92.5t11.5 34.5t32.5 14.5t32.5 -14.5t11.5 -34.5t-15 -92.5t-17 -106.5q20 23 51 23q14 0 41 -14.5t36 -14.5q3 19 14.5 30t27.5 11q15 0 25.5 -12t10.5 -27z" />
    <glyph glyph-name="daggerdbl" unicode="&#x2021;" horiz-adv-x="522" 
d="M469 551q0 -43 -47 -43q-20 0 -50.5 13t-51.5 13q-28 0 -34 -48q-8 -76 -15 -152h-20q-7 76 -15 152q-6 48 -34 48q-21 0 -51.5 -13t-50.5 -13q-47 0 -47 43q0 15 10.5 25.5t25.5 10.5q16 0 27.5 -11t14.5 -30q6 1 27.5 7.5t39.5 6.5q31 0 51 -23q-1 16 -16.5 58.5
t-15.5 65.5q0 20 11.5 34.5t32.5 14.5t32.5 -14.5t11.5 -34.5q0 -23 -15.5 -65.5t-16.5 -58.5q20 23 51 23q18 0 39.5 -6.5t27.5 -7.5q3 19 14.5 30t27.5 11q15 0 25.5 -10.5t10.5 -25.5zM469 81q0 -15 -10.5 -25.5t-25.5 -10.5q-16 0 -27.5 11t-14.5 30q-6 -1 -27.5 -7.5
t-39.5 -6.5q-31 0 -51 23q1 -16 16.5 -58.5t15.5 -65.5q0 -20 -11.5 -34.5t-32.5 -14.5t-32.5 14.5t-11.5 34.5q0 23 15.5 65.5t16.5 58.5q-20 -23 -51 -23q-18 0 -39.5 6.5t-27.5 7.5q-3 -19 -14.5 -30t-27.5 -11q-15 0 -25.5 10.5t-10.5 25.5q0 43 47 43q20 0 50.5 -13
t51.5 -13q28 0 34 48q8 76 15 152h20q7 -76 15 -152q6 -48 34 -48q21 0 51.5 13t50.5 13q47 0 47 -43z" />
    <glyph glyph-name="bullet" unicode="&#x2022;" horiz-adv-x="412" 
d="M342 325q0 -55 -40 -94.5t-96 -39.5t-96 39.5t-40 94.5t40 95.5t96 40.5t96 -40.5t40 -95.5z" />
    <glyph glyph-name="ellipsis" unicode="&#x2026;" horiz-adv-x="822" 
d="M749 55q0 -26 -19 -44.5t-45 -18.5t-45 18.5t-19 44.5t19 45t45 19t45 -19t19 -45zM475 55q0 -26 -19 -44.5t-45 -18.5t-45 18.5t-19 44.5t19 45t45 19t45 -19t19 -45zM201 55q0 -26 -19 -44.5t-45 -18.5t-45 18.5t-19 44.5t19 45t45 19t45 -19t19 -45z" />
    <glyph glyph-name="perthousand" unicode="&#x2030;" horiz-adv-x="1267" 
d="M1202 143q0 -64 -49.5 -110.5t-111.5 -46.5q-65 0 -111 42t-46 114q0 67 49 114.5t108 47.5q66 0 113.5 -41.5t47.5 -119.5zM813 143q0 -64 -49.5 -110.5t-111.5 -46.5q-65 0 -111 42t-46 114q0 67 49 114.5t108 47.5q66 0 113.5 -41.5t47.5 -119.5zM671 672l-429 -773
l-37 21l427 773zM383 459q0 -64 -49.5 -110.5t-111.5 -46.5q-65 0 -111 42t-46 114q0 67 49 114.5t108 47.5q66 0 113.5 -42t47.5 -119zM1123 141q0 63 -22 97.5t-59 34.5t-58.5 -35t-21.5 -92q0 -61 21.5 -95t60.5 -34q33 0 56 32.5t23 91.5zM734 141q0 63 -22 97.5
t-59 34.5t-58.5 -35t-21.5 -92q0 -61 21.5 -95t60.5 -34q33 0 56 32.5t23 91.5zM304 457q0 65 -21.5 98.5t-59.5 33.5q-37 0 -58.5 -34t-21.5 -93q0 -61 21.5 -95t60.5 -34q33 0 56 32t23 92z" />
    <glyph glyph-name="guilsinglleft" unicode="&#x2039;" horiz-adv-x="351" 
d="M300 33l-21 -18l-207 167q-11 8 -14 11t-5.5 10.5t-2.5 20.5q0 17 4 23.5t16 16.5q106 81 209 168l21 -18l-157 -192z" />
    <glyph glyph-name="guilsinglright" unicode="&#x203a;" horiz-adv-x="351" 
d="M301 224q0 -13 -2.5 -20.5t-5.5 -10.5t-14 -11l-207 -167l-21 18l157 189l-157 192l21 18q103 -87 209 -168q13 -10 16.5 -16.5t3.5 -23.5z" />
    <glyph glyph-name="fraction" unicode="&#x2044;" horiz-adv-x="370" 
d="M437 731l-504 -943l-43 21l503 943z" />
    <glyph glyph-name="trademark" unicode="&#x2122;" horiz-adv-x="830" 
d="M788 368h-156v23q31 0 41 5q13 9 13 19v203l-108 -245h-17q-3 12 -25 66l-77 184v-161q0 -47 13 -59q19 -12 47 -12v-23h-146v22q37 7 44 11q13 9 13 59v156q0 22 -13 33q-13 10 -41 12v22h115l95 -221l79 181q5 11 12 40h111v-22q-27 -2 -37 -6q-11 -2 -11 -18v-222
q0 -13 11 -18q18 -6 37 -6v-23zM333 593h-22q-5 19 -19.5 40.5t-26.5 23.5q-22 2 -36 2h-13v-242q0 -14 11 -19q21 -7 40 -7v-23h-157v23q25 0 40 5q11 4 11 18v245h-13q-16 0 -36 -2q-13 -2 -27 -23.5t-19 -40.5h-22v90h289v-90z" />
    <glyph glyph-name="infinity" unicode="&#x221e;" horiz-adv-x="875" 
d="M849 0h-231v31q26 1 42 6q27 9 27 45v291q-3 33 -14 50h-184v-336q0 -35 27 -45q24 -10 50 -11v-31h-239v31q29 2 44 6q27 9 27 45v340h-201v-335q0 -35 27 -45q25 -10 45 -11v-31h-234v31q29 2 44 6q27 9 27 45v338h-102v40h102v16q0 119 72 200q23 26 64.5 45t84.5 19
q104 0 133 -72q24 31 65.5 55t91.5 24q151 0 151 -107q0 -20 -13.5 -38.5t-39.5 -18.5q-20 0 -38 11t-18 34q0 15 3 23.5t7.5 13t5.5 6.5q-4 43 -64 43q-52 0 -87 -50t-35 -157v-47h161l121 8l7 -7v-373q0 -36 27 -46q25 -10 44 -11v-31zM414 587q-47 2 -47 36q0 15 3 25
t7.5 17t4.5 8q-1 6 -5.5 12.5t-19.5 14t-37 7.5q-51 0 -87.5 -48.5t-36.5 -156.5v-42h204v21q0 58 14 106z" />
    <glyph glyph-name="notequal" unicode="&#x2260;" horiz-adv-x="616" 
d="M706 663q0 -17 -13 -34t-35 -17q-20 0 -35.5 10t-15.5 33q0 7 3.5 23t3.5 28q-5 8 -23 8q-101 0 -101 -199v-55h122v-40h-122v-334q0 -34 27 -44q23 -9 55 -11v-31h-239v31q22 1 39 6q27 9 27 44v341h-202v-336q0 -34 27 -44q25 -10 45 -11v-31h-234v31q29 2 44 6
q27 9 27 44v339h-102v40h102v16q0 119 72 200q24 26 65 45t83 19q103 0 131 -67q24 36 67 55t82 19q46 0 73 -25t27 -59zM417 587q-51 0 -51 36q0 15 3 25t7.5 17t4.5 8q-1 11 -16 22.5t-46 11.5q-51 0 -87 -48.5t-36 -156.5v-42h205v19q0 44 16 108z" />
    <glyph glyph-name="fi" unicode="&#xfb01;" horiz-adv-x="583" 
d="M557 0h-230v31q25 1 41 6q27 9 27 44v293q-3 31 -14 48h-184v-336q0 -34 27 -44q24 -10 50 -11v-31h-239v31q29 2 44 6q27 9 27 44v338h-100v41h100v21q0 121 75 202q25 26 64 45t83 19q156 0 156 -106q0 -20 -13.5 -38.5t-39.5 -18.5q-20 0 -38 11t-18 34q0 15 3 25.5
t8 18t5 8.5q-4 32 -69 32q-53 0 -89 -48t-36 -154v-51h161l121 8l7 -7v-374q0 -35 27 -45q25 -10 44 -11v-31z" />
    <glyph glyph-name="fl" unicode="&#xfb02;" horiz-adv-x="584" 
d="M560 0h-231v31q26 1 42 6q28 9 28 44v512q-33 10 -33 36q0 14 6 24.5t13.5 16.5t7.5 7q-1 7 -5.5 14.5t-22 15t-44.5 7.5q-52 0 -88 -48t-36 -155v-51h123v-43h-123v-331q0 -34 27 -44q24 -10 50 -11v-31h-239v31q29 2 44 6q27 9 27 44v336h-100v43h100v21q0 121 75 202
q60 64 146 64q56 0 104 -23l51 22l7 -7v-652q0 -33 27 -45q21 -10 44 -11v-31z" />
    <glyph glyph-name="NUL" horiz-adv-x="0" 
 />
    </font>
</defs>
</svg>
